<?xml version="1.0" encoding="UTF-8"?>
<svg version="1.1" xmlns="http://www.w3.org/2000/svg" width="512" height="512">
<path d="M0 0 C1.01201477 0.00054382 2.02402954 0.00108765 3.06671143 0.00164795 C19.59530572 0.04238044 35.52913999 0.94575778 51.75 4.375 C52.79188477 4.59462402 53.83376953 4.81424805 54.90722656 5.04052734 C96.15949434 14.03859069 134.73611405 32.75918784 166.75 60.375 C167.49507813 61.00921875 168.24015625 61.6434375 169.0078125 62.296875 C182.51279833 74.10801515 195.18418743 86.85860228 205.75 101.375 C206.60649066 102.52494831 207.46326433 103.67468589 208.3203125 104.82421875 C214.3609414 113.01589526 219.72005071 121.53145078 224.75 130.375 C225.11448242 131.00680176 225.47896484 131.63860352 225.85449219 132.28955078 C240.78473018 158.37464001 250.26385054 187.71085114 254.75 217.375 C254.92660156 218.49745117 255.10320312 219.61990234 255.28515625 220.77636719 C256.9420586 232.38947743 257.14873513 243.90679945 257.125 255.625 C257.12418427 257.14302216 257.12418427 257.14302216 257.12335205 258.69171143 C257.08261956 275.22030572 256.17924222 291.15413999 252.75 307.375 C252.53037598 308.41688477 252.31075195 309.45876953 252.08447266 310.53222656 C243.08640931 351.78449434 224.36581216 390.36111405 196.75 422.375 C196.11578125 423.12007813 195.4815625 423.86515625 194.828125 424.6328125 C183.01698485 438.13779833 170.26639772 450.80918743 155.75 461.375 C154.60005169 462.23149066 153.45031411 463.08826433 152.30078125 463.9453125 C144.10910474 469.9859414 135.59354922 475.34505071 126.75 480.375 C126.11819824 480.73948242 125.48639648 481.10396484 124.83544922 481.47949219 C98.75035999 496.40973018 69.41414886 505.88885054 39.75 510.375 C38.62754883 510.55160156 37.50509766 510.72820312 36.34863281 510.91015625 C24.73552257 512.5670586 13.21820055 512.77373513 1.5 512.75 C-0.01802216 512.74918427 -0.01802216 512.74918427 -1.56671143 512.74835205 C-18.09530572 512.70761956 -34.02913999 511.80424222 -50.25 508.375 C-51.29188477 508.15537598 -52.33376953 507.93575195 -53.40722656 507.70947266 C-94.65949434 498.71140931 -133.23611405 479.99081216 -165.25 452.375 C-165.99507813 451.74078125 -166.74015625 451.1065625 -167.5078125 450.453125 C-181.01279833 438.64198485 -193.68418743 425.89139772 -204.25 411.375 C-205.10649066 410.22505169 -205.96326433 409.07531411 -206.8203125 407.92578125 C-212.8609414 399.73410474 -218.22005071 391.21854922 -223.25 382.375 C-223.61448242 381.74319824 -223.97896484 381.11139648 -224.35449219 380.46044922 C-239.28473018 354.37535999 -248.76385054 325.03914886 -253.25 295.375 C-253.51490234 293.69132324 -253.51490234 293.69132324 -253.78515625 291.97363281 C-255.4420586 280.36052257 -255.64873513 268.84320055 -255.625 257.125 C-255.62445618 256.11298523 -255.62391235 255.10097046 -255.62335205 254.05828857 C-255.58261956 237.52969428 -254.67924222 221.59586001 -251.25 205.375 C-251.03037598 204.33311523 -250.81075195 203.29123047 -250.58447266 202.21777344 C-241.58640931 160.96550566 -222.86581216 122.38888595 -195.25 90.375 C-194.61578125 89.62992187 -193.9815625 88.88484375 -193.328125 88.1171875 C-181.51698485 74.61220167 -168.76639772 61.94081257 -154.25 51.375 C-153.10005169 50.51850934 -151.95031411 49.66173567 -150.80078125 48.8046875 C-142.60910474 42.7640586 -134.09354922 37.40494929 -125.25 32.375 C-124.61819824 32.01051758 -123.98639648 31.64603516 -123.33544922 31.27050781 C-97.25035999 16.34026982 -67.91414886 6.86114946 -38.25 2.375 C-37.12754883 2.19839844 -36.00509766 2.02179687 -34.84863281 1.83984375 C-23.23552257 0.1829414 -11.71820055 -0.02373513 0 0 Z M-136.25 74.375 C-137.19230469 75.08398438 -138.13460937 75.79296875 -139.10546875 76.5234375 C-145.82492045 81.75798652 -152.07488379 87.51776394 -158.25 93.375 C-158.75321777 93.84953613 -159.25643555 94.32407227 -159.77490234 94.81298828 C-167.77459795 102.40613777 -174.65879895 110.54323378 -181.25 119.375 C-181.87189209 120.18976807 -181.87189209 120.18976807 -182.50634766 121.02099609 C-218.44064114 168.15003975 -232.61190316 228.98353041 -225.25 287.375 C-222.09896522 308.04717325 -216.65353065 328.21395267 -208.25 347.375 C-207.96431152 348.03532227 -207.67862305 348.69564453 -207.38427734 349.37597656 C-199.58222249 367.23935229 -189.21926027 383.04264915 -177.25 398.375 C-176.01781738 398.06042847 -176.01781738 398.06042847 -174.76074219 397.73950195 C-165.7608311 395.46467562 -156.73821067 393.29870278 -147.703125 391.16796875 C-143.9223342 390.27155825 -140.14179202 389.37410646 -136.36132812 388.47631836 C-133.79509235 387.86899536 -131.22803542 387.26513137 -128.66015625 386.66479492 C-92.15368877 379.5303228 -92.15368877 379.5303228 -64.25 357.375 C-63.54746094 356.35148437 -62.84492188 355.32796875 -62.12109375 354.2734375 C-60.13488635 351.32521805 -58.18788933 348.35511552 -56.25 345.375 C-55.49203125 344.34890625 -54.7340625 343.3228125 -53.953125 342.265625 C-52.03864155 339.65503032 -52.03864155 339.65503032 -52.41601562 337.45263672 C-53.47224761 334.8213328 -54.93100979 333.28899098 -56.890625 331.2421875 C-61.12795384 326.62187658 -64.588842 321.74816429 -68 316.5 C-68.59925293 315.58943848 -69.19850586 314.67887695 -69.81591797 313.74072266 C-74.73432856 306.23900949 -79.55115582 298.6734849 -84.3046875 291.06640625 C-86.30372549 287.86861404 -88.33154809 284.69187952 -90.3828125 281.52734375 C-95.19853465 274.07212009 -99.86208819 266.61103003 -103.875 258.6875 C-104.1937207 258.06464111 -104.51244141 257.44178223 -104.84082031 256.80004883 C-109.07486777 248.13939111 -111.16478066 238.42222175 -108.0625 229.0625 C-106.07560519 224.43574025 -103.16382956 221.31520254 -98.61843872 219.0821991 C-96.01436704 217.59942752 -96.01436704 217.59942752 -95.66891479 214.8820343 C-95.68906647 213.88882675 -95.70921814 212.8956192 -95.72998047 211.87231445 C-95.74507156 210.17828239 -95.74507156 210.17828239 -95.76046753 208.45002747 C-95.81329391 206.61271309 -95.81329391 206.61271309 -95.8671875 204.73828125 C-95.88137726 203.47090622 -95.89556702 202.20353119 -95.91018677 200.89775085 C-95.95002465 197.51489147 -96.00969076 194.13370817 -96.08154297 190.75146484 C-96.6535523 163.58423534 -97.11087322 140.18279443 -80.25 117.375 C-79.80269531 116.74207031 -79.35539063 116.10914062 -78.89453125 115.45703125 C-69.50178921 103.28981771 -54.74892835 95.65070627 -41.06933594 89.37451172 C-35.67501702 86.84477065 -33.24542625 84.94705298 -31.0390625 79.24609375 C-30.26276368 76.95627273 -29.49192961 74.6645918 -28.7265625 72.37109375 C-27.00674574 68.88141266 -25.78934954 67.89412469 -22.25 66.375 C4.69015136 61.04459572 40.12009122 81.4423369 61.5546875 95.515625 C66.53044393 98.86226882 71.21120864 102.45748806 75.75 106.375 C76.42804688 106.89835937 77.10609375 107.42171875 77.8046875 107.9609375 C92.07734293 119.34574047 100.58131289 138.60342312 102.75 156.375 C103.34885883 166.48407738 103.15089363 176.62569371 103.0246582 186.7467041 C102.98315008 190.43455736 102.96534678 194.12252553 102.9453125 197.81054688 C102.9028877 204.99900496 102.83495849 212.18690504 102.75 219.375 C103.69230469 219.80941406 104.63460938 220.24382812 105.60546875 220.69140625 C109.72839613 222.89883693 111.87704413 225.7505365 113.359375 230.20703125 C116.95225319 250.14750522 102.75666881 268.45765389 92.74804688 284.19970703 C89.87169674 288.77079816 87.1231746 293.41369746 84.375 298.0625 C75.2505057 313.3495631 65.63248163 328.9319567 52.75 341.375 C54.55769709 346.51071377 57.50576338 350.34227586 60.75 354.6640625 C62.31141236 356.78050816 63.68786996 358.89122618 65.0625 361.125 C78.30249375 379.16395589 111.80059193 382.66215436 132.09005737 387.52713013 C137.80436858 388.89807151 143.50729599 390.30815165 149.203125 391.75390625 C150.30958626 392.03420181 150.30958626 392.03420181 151.43840027 392.32015991 C154.23675642 393.0293939 157.034985 393.73909452 159.83218384 394.45288086 C161.71148497 394.93159705 163.59204627 395.40535791 165.47265625 395.87890625 C166.52203369 396.14517822 167.57141113 396.4114502 168.65258789 396.68579102 C172.00369592 397.43145019 175.34703286 397.92987939 178.75 398.375 C186.71932448 388.59053654 193.42935824 378.29002701 199.75 367.375 C200.12398926 366.73304688 200.49797852 366.09109375 200.88330078 365.4296875 C230.43891869 314.14721249 235.08788119 251.75849331 220.44140625 195.19921875 C212.87890559 167.61672629 199.91361877 142.16118354 182.75 119.375 C182.04101562 118.43269531 181.33203125 117.49039063 180.6015625 116.51953125 C175.36701348 109.80007955 169.60723606 103.55011621 163.75 97.375 C163.0381958 96.62017334 163.0381958 96.62017334 162.31201172 95.85009766 C154.71886223 87.85040205 146.58176622 80.96620105 137.75 74.375 C137.20682129 73.96040527 136.66364258 73.54581055 136.10400391 73.11865234 C58.58090051 14.00992165 -54.28513626 14.11498741 -136.25 74.375 Z M-80.25 185.375 C-79.70303127 190.87471545 -79.15157655 196.37395549 -78.59594727 201.87280273 C-78.40753581 203.74377233 -78.22035396 205.61486617 -78.03442383 207.48608398 C-77.76706421 210.17465233 -77.49529558 212.86274382 -77.22265625 215.55078125 C-77.14032242 216.38837479 -77.05798859 217.22596832 -76.97315979 218.08894348 C-76.64052638 221.33423889 -76.28515255 224.26954234 -75.25 227.375 C-76.11882812 227.34019531 -76.98765625 227.30539063 -77.8828125 227.26953125 C-87.83366023 227.0240225 -87.83366023 227.0240225 -96.125 232.0625 C-98.68988249 237.33475845 -97.46534247 242.31446194 -95.6875 247.625 C-90.86278588 259.8111336 -82.91731325 270.70401197 -75.87890625 281.69140625 C-73.57461585 285.29098253 -71.28868603 288.90063625 -69.02734375 292.52734375 C-60.11007415 306.82626378 -51.10023501 320.32696138 -39.25 332.375 C-38.59644531 333.05304688 -37.94289062 333.73109375 -37.26953125 334.4296875 C-26.81923576 344.45662347 -12.18126885 349.25116921 2.0625 349.8125 C20.69939159 349.29418258 36.45765676 341.16744142 49.2421875 327.76171875 C62.41861386 312.54357776 72.35842278 294.67855395 82.67337036 277.47257996 C84.86649679 273.82115916 87.09917372 270.19761275 89.36328125 266.58984375 C99.36102866 251.17152309 99.36102866 251.17152309 101.75 233.375 C100.4006819 231.29599741 100.4006819 231.29599741 97.75 230.375 C94.65462497 230.03115268 91.60931084 230.09276319 88.5 230.1875 C87.65953125 230.20103516 86.8190625 230.21457031 85.953125 230.22851562 C83.88514062 230.26376536 81.81748729 230.3175698 79.75 230.375 C79.96205078 229.42657227 80.17410156 228.47814453 80.39257812 227.50097656 C81.17955358 223.97587393 81.96096747 220.44955771 82.74072266 216.92285156 C83.07872816 215.39777592 83.41823313 213.8730318 83.75927734 212.34863281 C84.24973536 210.15515587 84.73475649 207.96053618 85.21875 205.765625 C85.37186646 205.0863092 85.52498291 204.40699341 85.68273926 203.70709229 C86.39025097 200.47427826 86.75 197.71049386 86.75 194.375 C85.94071045 194.39071045 85.1314209 194.4064209 84.29760742 194.42260742 C81.19053701 194.47483635 78.0836953 194.51186763 74.97631836 194.53979492 C73.01205231 194.56166976 71.04798856 194.59984969 69.08398438 194.63867188 C49.75216222 194.78329897 31.50657959 190.05089824 12.875 185.3125 C-4.13031206 181.00246256 -20.28256888 176.9753801 -37.9375 177 C-39.1548584 177.00161133 -40.3722168 177.00322266 -41.62646484 177.00488281 C-55.62261329 177.1937947 -67.40183986 180.02296805 -80.25 185.375 Z M-44.25 345.375 C-44.71374023 346.0455542 -45.17748047 346.7161084 -45.65527344 347.40698242 C-47.76831372 350.46011972 -49.88412791 353.51132459 -52 356.5625 C-53.09441406 358.14514648 -53.09441406 358.14514648 -54.2109375 359.75976562 C-54.91992188 360.78134766 -55.62890625 361.80292969 -56.359375 362.85546875 C-57.00874023 363.79285889 -57.65810547 364.73024902 -58.32714844 365.69604492 C-59.63776981 367.52202871 -61.01796035 369.2995637 -62.45410156 371.02856445 C-64.46814306 373.30615209 -64.46814306 373.30615209 -64.875 376.4375 C-63.34385243 386.08372969 -57.97442494 394.48972386 -50.25 400.375 C-45.7054575 403.32515647 -41.07242187 405.90873859 -36.25 408.375 C-35.05117187 408.99375 -35.05117187 408.99375 -33.828125 409.625 C-14.54157117 418.37918046 9.05984405 418.91134578 28.96484375 412.30859375 C42.86264882 406.88898637 53.72787398 398.99875159 61.3125 386.125 C61.67174561 385.52228271 62.03099121 384.91956543 62.40112305 384.29858398 C64.27469435 381.06618301 64.27469435 381.06618301 64.5222168 377.44335938 C63.59996461 374.97313474 62.35981794 373.21034365 60.765625 371.109375 C60.15976562 370.30113281 59.55390625 369.49289062 58.9296875 368.66015625 C58.29289062 367.82355469 57.65609375 366.98695313 57 366.125 C52.62967081 360.34927449 48.49500895 354.57856444 44.75 348.375 C43.82960938 348.90609375 42.90921875 349.4371875 41.9609375 349.984375 C30.85075839 356.24365167 19.68804617 360.80926794 6.75 361.375 C6.07195312 361.41496094 5.39390625 361.45492188 4.6953125 361.49609375 C-11.58254928 362.00291362 -25.71394662 357.09717524 -39.25 348.375 C-40.91495157 347.37214705 -42.58141842 346.37180153 -44.25 345.375 Z " fill="#000000" transform="translate(255.25,-0.375)"/>
</svg>
