<svg width="836" height="836" viewBox="0 0 836 836" fill="none" xmlns="http://www.w3.org/2000/svg">
<rect width="800" height="800" transform="translate(18 18)" fill="white"/>
<g filter="url(#filter0_f_1006_6)">
<rect x="2.5" y="2.5" width="831" height="831" stroke="#B58863"/>
<rect x="210.5" y="2.5" width="103" height="103" fill="#B58863" stroke="black"/>
<rect x="730.5" y="106.5" width="103" height="103" fill="#B58863" stroke="black"/>
<rect x="522.5" y="106.5" width="103" height="103" fill="#B58863" stroke="black"/>
<rect x="314.5" y="106.5" width="103" height="103" fill="#B58863" stroke="black"/>
<rect x="106.5" y="314.5" width="103" height="103" fill="#B58863" stroke="black"/>
<rect x="626.5" y="210.5" width="103" height="103" fill="#B58863" stroke="black"/>
<rect x="418.5" y="210.5" width="103" height="103" fill="#B58863" stroke="black"/>
<rect x="210.5" y="418.5" width="103" height="103" fill="#B58863" stroke="black"/>
<rect x="730.5" y="522.5" width="103" height="103" fill="#B58863" stroke="black"/>
<rect x="730.5" y="730.5" width="103" height="103" fill="#B58863" stroke="black"/>
<rect x="418.5" y="418.5" width="103" height="103" fill="#B58863" stroke="black"/>
<rect x="314.5" y="730.5" width="103" height="103" fill="#B58863" stroke="black"/>
<rect x="522.5" y="730.5" width="103" height="103" fill="#B58863" stroke="black"/>
<rect x="210.5" y="626.5" width="103" height="103" fill="#B58863" stroke="black"/>
<rect x="418.5" y="626.5" width="103" height="103" fill="#B58863" stroke="black"/>
<rect x="626.5" y="626.5" width="103" height="103" fill="#B58863" stroke="black"/>
<rect x="522.5" y="522.5" width="103" height="103" fill="#B58863" stroke="black"/>
<rect x="314.5" y="522.5" width="103" height="103" fill="#B58863" stroke="black"/>
<rect x="106.5" y="522.5" width="103" height="103" fill="#B58863" stroke="black"/>
<rect x="730.5" y="314.5" width="103" height="103" fill="#B58863" stroke="black"/>
<rect x="626.5" y="418.5" width="103" height="103" fill="#B58863" stroke="black"/>
<rect x="522.5" y="314.5" width="103" height="103" fill="#B58863" stroke="black"/>
<rect x="314.5" y="314.5" width="103" height="103" fill="#B58863" stroke="black"/>
<rect x="210.5" y="210.5" width="103" height="103" fill="#B58863" stroke="black"/>
<rect x="106.5" y="106.5" width="103" height="103" fill="#B58863" stroke="black"/>
<rect x="626.5" y="2.5" width="103" height="103" fill="#B58863" stroke="black"/>
<rect x="418.5" y="2.5" width="103" height="103" fill="#B58863" stroke="black"/>
<rect x="2.5" y="626.5" width="103" height="103" fill="#B58863" stroke="black"/>
<rect x="106.5" y="730.5" width="103" height="103" fill="#B58863" stroke="black"/>
<rect x="2.5" y="418.5" width="103" height="103" fill="#B58863" stroke="black"/>
<rect x="2.5" y="210.5" width="103" height="103" fill="#B58863" stroke="black"/>
<rect x="2.5" y="2.5" width="103" height="103" fill="#B58863" stroke="black"/>
<path d="M105.5 106.5V209.5H2.5V106.5H105.5Z" fill="#B58863" stroke="black"/>
<path d="M209.5 2.5V105.5H106.5V2.5H209.5Z" fill="#B58863" stroke="black"/>
<path d="M209.5 210.5V313.5H106.5V210.5H209.5Z" fill="#B58863" stroke="black"/>
<path d="M521.5 314.5V417.5H418.5V314.5H521.5Z" fill="#B58863" stroke="black"/>
<path d="M625.5 418.5V521.5H522.5V418.5H625.5Z" fill="#B58863" stroke="black"/>
<path d="M833.5 418.5V521.5H730.5V418.5H833.5Z" fill="#B58863" stroke="black"/>
<path d="M729.5 314.5V417.5H626.5V314.5H729.5Z" fill="#B58863" stroke="black"/>
<path d="M417.5 418.5V521.5H314.5V418.5H417.5Z" fill="#B58863" stroke="black"/>
<path d="M209.5 626.5V729.5H106.5V626.5H209.5Z" fill="#B58863" stroke="black"/>
<path d="M729.5 522.5V625.5H626.5V522.5H729.5Z" fill="#B58863" stroke="black"/>
<path d="M521.5 522.5V625.5H418.5V522.5H521.5Z" fill="#B58863" stroke="black"/>
<path d="M313.5 522.5V625.5H210.5V522.5H313.5Z" fill="#B58863" stroke="black"/>
<path d="M209.5 418.5V521.5H106.5V418.5H209.5Z" fill="#B58863" stroke="black"/>
<path d="M729.5 106.5V209.5H626.5V106.5H729.5Z" fill="#B58863" stroke="black"/>
<path d="M521.5 106.5V209.5H418.5V106.5H521.5Z" fill="#B58863" stroke="black"/>
<path d="M313.5 106.5V209.5H210.5V106.5H313.5Z" fill="#B58863" stroke="black"/>
<path d="M313.5 314.5V417.5H210.5V314.5H313.5Z" fill="#B58863" stroke="black"/>
<path d="M833.5 210.5V313.5H730.5V210.5H833.5Z" fill="#B58863" stroke="black"/>
<path d="M625.5 210.5V313.5H522.5V210.5H625.5Z" fill="#B58863" stroke="black"/>
<path d="M417.5 210.5V313.5H314.5V210.5H417.5Z" fill="#B58863" stroke="black"/>
<path d="M833.5 2.5V105.5H730.5V2.5H833.5Z" fill="#B58863" stroke="black"/>
<path d="M625.5 2.5V105.5H522.5V2.5H625.5Z" fill="#B58863" stroke="black"/>
<path d="M417.5 2.5V105.5H314.5V2.5H417.5Z" fill="#B58863" stroke="black"/>
<path d="M105.5 522.5V625.5H2.5V522.5H105.5Z" fill="#B58863" stroke="black"/>
<path d="M105.5 314.5V417.5H2.5V314.5H105.5Z" fill="#B58863" stroke="black"/>
<path d="M105.5 730.5V833.5H2.5V730.5H105.5Z" fill="#B58863" stroke="black"/>
<path d="M833.5 626.5V729.5H730.5V626.5H833.5Z" fill="#B58863" stroke="black"/>
<path d="M625.5 626.5V729.5H522.5V626.5H625.5Z" fill="#B58863" stroke="black"/>
<path d="M729.5 730.5V833.5H626.5V730.5H729.5Z" fill="#B58863" stroke="black"/>
<path d="M521.5 730.5V833.5H418.5V730.5H521.5Z" fill="#B58863" stroke="black"/>
<path d="M417.5 626.5V729.5H314.5V626.5H417.5Z" fill="#B58863" stroke="black"/>
<path d="M313.5 730.5V833.5H210.5V730.5H313.5Z" fill="#B58863" stroke="black"/>
</g>
<rect x="218" y="18" width="100" height="100" fill="#F0D9B5"/>
<rect x="718" y="118" width="100" height="100" fill="#F0D9B5"/>
<rect x="518" y="118" width="100" height="100" fill="#F0D9B5"/>
<rect x="318" y="118" width="100" height="100" fill="#F0D9B5"/>
<rect x="118" y="318" width="100" height="100" fill="#F0D9B5"/>
<rect x="618" y="218" width="100" height="100" fill="#F0D9B5"/>
<rect x="418" y="218" width="100" height="100" fill="#F0D9B5"/>
<rect x="218" y="418" width="100" height="100" fill="#F0D9B5"/>
<rect x="718" y="518" width="100" height="100" fill="#F0D9B5"/>
<rect x="718" y="718" width="100" height="100" fill="#F0D9B5"/>
<rect x="418" y="418" width="100" height="100" fill="#F0D9B5"/>
<rect x="318" y="718" width="100" height="100" fill="#F0D9B5"/>
<rect x="518" y="718" width="100" height="100" fill="#F0D9B5"/>
<rect x="218" y="618" width="100" height="100" fill="#F0D9B5"/>
<rect x="418" y="618" width="100" height="100" fill="#F0D9B5"/>
<rect x="618" y="618" width="100" height="100" fill="#F0D9B5"/>
<rect x="518" y="518" width="100" height="100" fill="#F0D9B5"/>
<rect x="318" y="518" width="100" height="100" fill="#F0D9B5"/>
<rect x="118" y="518" width="100" height="100" fill="#F0D9B5"/>
<rect x="718" y="318" width="100" height="100" fill="#F0D9B5"/>
<rect x="618" y="418" width="100" height="100" fill="#F0D9B5"/>
<rect x="518" y="318" width="100" height="100" fill="#F0D9B5"/>
<rect x="318" y="318" width="100" height="100" fill="#F0D9B5"/>
<rect x="218" y="218" width="100" height="100" fill="#F0D9B5"/>
<rect x="118" y="118" width="100" height="100" fill="#F0D9B5"/>
<rect x="618" y="18" width="100" height="100" fill="#F0D9B5"/>
<rect x="418" y="18" width="100" height="100" fill="#F0D9B5"/>
<rect x="18" y="618" width="100" height="100" fill="#F0D9B5"/>
<rect x="118" y="718" width="100" height="100" fill="#F0D9B5"/>
<rect x="18" y="418" width="100" height="100" fill="#F0D9B5"/>
<rect x="18" y="218" width="100" height="100" fill="#F0D9B5"/>
<rect x="18" y="18" width="100" height="100" fill="#F0D9B5"/>
<path d="M18 118H118V218H18V118Z" fill="#B58863"/>
<path d="M118 18H218V118H118V18Z" fill="#B58863"/>
<path d="M118 218H218V318H118V218Z" fill="#B58863"/>
<path d="M418 318H518V418H418V318Z" fill="#B58863"/>
<path d="M518 418H618V518H518V418Z" fill="#B58863"/>
<path d="M718 418H818V518H718V418Z" fill="#B58863"/>
<path d="M618 318H718V418H618V318Z" fill="#B58863"/>
<path d="M318 418H418V518H318V418Z" fill="#B58863"/>
<path d="M118 618H218V718H118V618Z" fill="#B58863"/>
<path d="M618 518H718V618H618V518Z" fill="#B58863"/>
<path d="M418 518H518V618H418V518Z" fill="#B58863"/>
<path d="M218 518H318V618H218V518Z" fill="#B58863"/>
<path d="M118 418H218V518H118V418Z" fill="#B58863"/>
<path d="M618 118H718V218H618V118Z" fill="#B58863"/>
<path d="M418 118H518V218H418V118Z" fill="#B58863"/>
<path d="M218 118H318V218H218V118Z" fill="#B58863"/>
<path d="M218 318H318V418H218V318Z" fill="#B58863"/>
<path d="M718 218H818V318H718V218Z" fill="#B58863"/>
<path d="M518 218H618V318H518V218Z" fill="#B58863"/>
<path d="M318 218H418V318H318V218Z" fill="#B58863"/>
<path d="M718 18H818V118H718V18Z" fill="#B58863"/>
<path d="M518 18H618V118H518V18Z" fill="#B58863"/>
<path d="M318 18H418V118H318V18Z" fill="#B58863"/>
<path d="M18 518H118V618H18V518Z" fill="#B58863"/>
<path d="M18 318H118V418H18V318Z" fill="#B58863"/>
<path d="M18 718H118V818H18V718Z" fill="#B58863"/>
<path d="M718 618H818V718H718V618Z" fill="#B58863"/>
<path d="M518 618H618V718H518V618Z" fill="#B58863"/>
<path d="M618 718H718V818H618V718Z" fill="#B58863" fill-opacity="0.933333"/>
<path d="M418 718H518V818H418V718Z" fill="#B58863"/>
<path d="M318 618H418V718H318V618Z" fill="#B58863"/>
<path d="M218 718H318V818H218V718Z" fill="#B58863"/>
<defs>
<filter id="filter0_f_1006_6" x="0" y="0" width="836" height="836" filterUnits="userSpaceOnUse" color-interpolation-filters="sRGB">
<feFlood flood-opacity="0" result="BackgroundImageFix"/>
<feBlend mode="normal" in="SourceGraphic" in2="BackgroundImageFix" result="shape"/>
<feGaussianBlur stdDeviation="1" result="effect1_foregroundBlur_1006_6"/>
</filter>
</defs>
</svg>
