<svg xmlns="http://www.w3.org/2000/svg" width="973" height="719" preserveAspectRatio="none" style="display:block" viewBox="0 0 2048 1513" id="a10c7425-ab09-4990-b4a9-4044b3391fe8">
  <defs>
    <linearGradient id="Gradient1" x1="1268.44" x2="1297.26" y1="462.565" y2="455.258" gradientUnits="userSpaceOnUse">
      <stop class="stop0" offset="0" stop-color="#F8DDC6"></stop>
      <stop class="stop1" offset="1" stop-color="#FFF"></stop>
    </linearGradient>
    <linearGradient id="Gradient2" x1="1616" x2="1602.66" y1="372.778" y2="355.783" gradientUnits="userSpaceOnUse">
      <stop class="stop0" offset="0" stop-color="#F5A99F"></stop>
      <stop class="stop1" offset="1" stop-color="#FFCEBF"></stop>
    </linearGradient>
    <linearGradient id="Gradient3" x1="1632.83" x2="1627.86" y1="888.564" y2="918.153" gradientUnits="userSpaceOnUse">
      <stop class="stop0" offset="0" stop-color="#EBA392"></stop>
      <stop class="stop1" offset="1" stop-color="#FEC4BE"></stop>
    </linearGradient>
    <linearGradient id="Gradient4" x1="1446.16" x2="1432.96" y1="571.219" y2="544.076" gradientUnits="userSpaceOnUse">
      <stop class="stop0" offset="0" stop-color="#ED958D"></stop>
      <stop class="stop1" offset="1" stop-color="#FFC6AE"></stop>
    </linearGradient>
    <linearGradient id="Gradient5" x1="1621.4" x2="1617.13" y1="623.375" y2="654.698" gradientUnits="userSpaceOnUse">
      <stop class="stop0" offset="0" stop-color="#D78879"></stop>
      <stop class="stop1" offset="1" stop-color="#EBA5A4"></stop>
    </linearGradient>
  </defs>
  <path fill="#474850" d="M 0 0 L 2016.39 0 L 2048 0 L 2048 1513 L 0 1513 L 0 1502.09 L 0 0 z"></path>
  <path fill="#23242C" d="M 2016.39 0 L 2048 0 L 2048 1513 L 0 1513 L 0 1502.09 C 32.638 1500.81 68.3543 1501.43 101.285 1501.4 L 275.424 1501.35 L 795.8 1501.33 L 954.799 1501.38 C 981.162 1501.41 1015.65 1502.41 1041.39 1501.06 C 1062.32 1501.82 1095.15 1501.87 1116.07 1501.05 C 1124.41 1501.89 1140.85 1501.48 1149.8 1501.49 L 1210.48 1501.52 L 1408.45 1501.42 L 2016.1 1501.63 C 2017.86 1440.9 2016.35 1372.07 2016.35 1310.92 L 2016.29 986.13 C 1994.41 993.82 1965.56 1008.17 1943.56 1017.49 L 1757.11 1098.29 L 1237.64 1327.55 L 1090.79 1393.21 L 1032.47 1419.4 C 1007.46 1430.55 977.633 1449.4 952.233 1433.09 C 934.55 1421.73 919.105 1409.69 902.431 1396.93 L 825.257 1337.2 C 714.987 1252.75 605.347 1167.48 496.347 1081.4 C 437.972 1036.09 379.885 990.419 322.091 944.377 C 295.332 923.239 267.677 903.207 241.637 881.046 C 234.001 874.548 232.735 871.821 228.426 862.784 L 225.554 862.025 C 223.583 860.102 222.12 858.178 220.911 855.687 C 215.618 844.78 215.618 787.399 216.915 772.902 C 217.535 765.547 219.105 758.303 221.585 751.351 C 223.111 747.144 226.446 738.827 230.178 736.619 C 245.468 727.574 265.83 720.688 282.359 713.799 L 391.211 669.415 C 414.538 660.003 439.628 650.413 462.371 639.69 C 466.102 623.314 469.674 606.902 473.086 590.456 C 472.087 590.019 471.1 589.557 470.126 589.069 C 455.359 581.635 451.917 572.549 447.006 557.802 C 450.196 549.042 459.419 526.885 465.396 520.829 C 459.015 499.936 446.577 479.911 441.434 458.923 C 432.678 423.193 468.68 410.827 495.646 404.833 C 483.583 386.663 494.29 375.953 510.8 368.819 C 527.966 374.617 541.101 383.403 530.837 403.742 C 531.877 404.085 532.912 404.441 533.943 404.81 C 554.665 412.238 588.145 426.992 581.667 453.235 C 576.403 474.559 562.498 502.463 554.583 523.817 C 560.818 529.913 560.422 533.445 564.808 538.181 C 589.033 564.337 567.344 581.241 545.301 594.157 C 546.539 601.039 547.837 605.747 549.787 612.498 C 568.479 604.119 589.285 596.568 608.464 588.72 C 654.757 570.006 700.881 550.875 746.83 531.33 C 763.18 524.339 782.478 517.811 797.919 510.036 C 764.994 446.313 860.493 400.564 895.348 464.393 C 980.265 427.245 1068.62 391.523 1154.33 355.119 L 1219.65 327.783 C 1231.54 322.785 1247.73 316.578 1258.5 310.239 C 1260.96 306.542 1262.64 296.724 1263.83 291.872 C 1239.16 308.624 1222.27 314.226 1204.25 284.478 C 1191.27 263.052 1188.9 259.537 1183.9 234.295 L 1184.81 233.139 C 1192.77 222.879 1264.04 175.145 1279.72 164.099 C 1281.26 151.365 1280.94 138.065 1282.78 125.393 C 1283.52 120.297 1284.73 115.845 1290.42 116.218 C 1298.62 120.556 1308.09 140.097 1312.9 148.677 L 1321.89 152.963 C 1322.92 146.01 1326.14 129.361 1332.5 125.908 C 1344.11 126.995 1348.57 167.111 1350.45 177.781 C 1362.1 184.254 1371.55 192.687 1382.01 201.008 L 1387.37 198.441 C 1382.68 190.137 1384.32 159.471 1391.17 151.502 C 1397.63 143.248 1401.98 144.375 1410.89 141.164 C 1424.69 136.188 1452.58 157.717 1456.9 166.222 C 1457.62 167.638 1462.46 199.18 1462.87 203.432 C 1483.9 214.961 1492.78 230.634 1487.76 255.749 C 1485.77 265.688 1478.13 271.01 1469.72 275.83 C 1468.8 286.961 1467.31 298.681 1467.21 309.774 C 1476.15 316.62 1485.03 322.975 1493.84 330.046 C 1495.82 323.137 1498.25 316.088 1500.5 309.242 C 1496.74 292.916 1495.02 261.172 1526.03 269.076 C 1533.97 271.098 1539.55 284.275 1542.39 291.745 C 1545.18 290.692 1550.85 289.249 1553.93 288.378 C 1555.57 276.05 1557.91 260.117 1573.45 258.013 C 1578.47 257.381 1583.53 258.827 1587.46 262.016 C 1595.6 268.522 1596.25 278.989 1597.63 288.444 L 1607.53 291.315 C 1610.27 283.724 1612.27 276.888 1620.11 272.931 C 1629.74 268.073 1641.05 274.515 1644.53 284.135 C 1647.27 291.715 1647.49 297.606 1644.49 305.118 C 1651.99 314.23 1652.87 316.087 1653.54 327.747 C 1655.33 358.785 1649.91 367.307 1621.92 379.427 C 1622.15 395.009 1626.5 430.175 1629.33 446.423 C 1655.18 464.521 1681.05 485.233 1706.5 504.245 C 1809.67 581.32 1909.48 660.859 2016.31 733.101 C 2017.29 648.132 2016.39 561.316 2016.36 476.213 L 2016.39 0 z"></path>
  <path fill="#FCFBFB" d="M 2016.39 0 L 2048 0 L 2048 1513 L 0 1513 L 0 1502.09 C 32.638 1500.81 68.3543 1501.43 101.285 1501.4 L 275.424 1501.35 L 795.8 1501.33 L 954.799 1501.38 C 981.162 1501.41 1015.65 1502.41 1041.39 1501.06 C 1062.32 1501.82 1095.15 1501.87 1116.07 1501.05 C 1124.41 1501.89 1140.85 1501.48 1149.8 1501.49 L 1210.48 1501.52 L 1408.45 1501.42 L 2016.1 1501.63 C 2017.86 1440.9 2016.35 1372.07 2016.35 1310.92 L 2016.29 986.13 C 1994.41 993.82 1965.56 1008.17 1943.56 1017.49 L 1757.11 1098.29 L 1237.64 1327.55 L 1090.79 1393.21 L 1032.47 1419.4 C 1007.46 1430.55 977.633 1449.4 952.233 1433.09 C 934.55 1421.73 919.105 1409.69 902.431 1396.93 L 825.257 1337.2 C 714.987 1252.75 605.347 1167.48 496.347 1081.4 C 437.972 1036.09 379.885 990.419 322.091 944.377 C 295.332 923.239 267.677 903.207 241.637 881.046 C 234.001 874.548 232.735 871.821 228.426 862.784 C 224.92 849.606 225.559 780.751 226.202 764.026 C 262.028 795.308 315.438 833.668 353.958 863.229 L 576.712 1035.15 L 846.629 1245.65 C 866.257 1260.95 944.408 1325.85 960.447 1331.32 C 971.615 1335.12 985.719 1333.25 996.539 1329.13 C 1018.69 1320.71 1040.32 1309.47 1061.9 1299.64 L 1177.8 1247.23 L 1499.56 1104.75 L 1709.34 1013.81 C 1739.33 1000.89 1769.9 987.049 1799.89 974.526 L 1932.68 918.174 C 1958.56 907.347 1992.38 894.631 2017.12 882.58 C 2017.14 878.4 2017.26 876.589 2016.28 872.41 C 2014.74 871.323 2015.35 871.276 2014.3 871.707 C 1740.57 987.306 1467.96 1105.56 1196.53 1226.46 C 1127.2 1257.11 1058.59 1289.61 989.209 1320.09 C 984.632 1321.66 972.143 1324.94 967.602 1322.96 C 951.163 1315.79 933.148 1299.2 919.03 1288.2 L 840.834 1227.07 L 361.807 854.557 L 277.729 789.593 C 267.599 781.821 238.933 760.961 231.749 752.215 C 234.283 748.874 236.903 745.261 240.671 743.377 C 257.828 734.799 277.185 727.903 294.968 720.607 L 405.235 675.262 C 422.806 668.101 443.118 661.204 460.051 653.169 C 458.368 660.701 456.908 667.402 455.671 675.047 C 445.654 677.73 439.001 680.757 429.679 685.319 C 429.521 685.9 429.194 686.803 429.239 687.324 C 435.579 694.6 437.155 697.836 447.367 694.359 C 447.268 695.071 435.729 721.409 434.372 725.108 C 419.182 732.968 365.239 752.564 357.751 759.431 C 357.211 761.16 356.803 761.696 357.758 763.399 C 364.061 774.632 467.631 847.166 487.079 862.114 L 842.04 1136.32 C 887.369 1171.3 931.153 1209.38 977.398 1243.07 C 988.703 1251.31 1040.3 1224.36 1053.76 1218.58 L 1210.28 1150.6 L 1423.27 1058.76 C 1551.1 1001.45 1679.43 945.259 1808.24 890.191 C 1820.58 885.035 1951.03 832.125 1954.56 826.564 C 1955.38 825.264 1954.96 824.042 1954.84 822.567 C 1950.13 815.371 1864.56 750.914 1853.91 744.707 C 1848.9 729.592 1843.41 710.087 1840.42 694.334 C 1853.03 686.094 1854.73 685.406 1858.67 670.68 C 1866.12 642.867 1851.96 628.339 1824.94 622.899 C 1802.1 618.3 1764.17 622.336 1757.01 649.898 C 1755.58 655.629 1759.22 666.552 1761 672.493 C 1728.54 647.836 1695.33 624.362 1663.88 598.289 C 1659.09 594.323 1652.95 589.638 1647.78 586.184 C 1645.43 571.629 1636.09 515.529 1637.15 504.257 C 1641.52 500.5 1642.31 500.831 1643.59 496.052 C 1642.31 491.142 1640.81 491.924 1635.72 491.533 C 1632.34 488.714 1630.49 464.882 1629.6 458.458 C 1638.77 468.203 1653.78 478.143 1664.68 486.503 L 1736.93 541.51 C 1829.01 611.025 1922.14 679.133 2016.29 745.812 C 2016.3 741.633 2016.38 737.259 2016.31 733.101 C 2017.29 648.132 2016.39 561.316 2016.36 476.213 L 2016.39 0 z"></path>
  <path fill="#23242C" d="M2013.8 889.949 2016.17 890.552C2016.88 895.758 2016.56 911.968 2016.58 917.856L2016.77 972.179C2002.36 980.381 1967.81 993.508 1951.09 1000.57L1839.04 1049.04 1491.06 1201.62 1141.84 1356.89 1048.02 1398.57C1027.48 1407.78 1005.26 1418.66 984.194 1426.02 980.009 1421.32 981.56 1402.81 981.573 1395.91 981.481 1378 981.632 1360.1 982.025 1342.19 1010.86 1327.97 1045.55 1313.1 1075.15 1299.61 1152.16 1264.43 1229.44 1229.86 1307 1195.93 1541.62 1091.67 1777.23 989.677 2013.8 889.949zM234.682 783.37C240.817 783.879 263.583 803.253 270.103 808.078 300.892 830.628 331.307 853.683 361.337 877.234L787.379 1208.16C838.279 1247.25 888.971 1286.6 939.452 1326.22 942.401 1328.53 945.504 1331.55 948.818 1333.27 954.42 1336.19 961.271 1337.26 965.911 1341.76 969.917 1345.65 968.157 1413.2 968.209 1424.64 959.1 1423.34 952.898 1419.02 945.566 1413.66 924.168 1398.02 903.793 1381.04 882.865 1364.78L787.635 1291.92C661.012 1194.6 535.051 1096.42 409.76 997.389L302.801 913.842C286.378 901.107 241.302 870.696 236.415 852.237 233.081 839.641 233.857 797.955 234.682 783.37zM1731.01 571.779C1733.9 574.084 1736.63 575.735 1738.17 578.987 1736.4 580.591 1734.98 581.767 1733.1 583.241 1739.95 587.256 1741.48 579.613 1748.3 588.033 1748.91 589.918 1749.1 591.292 1750.59 592.54 1753.52 594.884 1753.25 593.933 1753.96 596.876 1750.66 601.469 1733.29 606.581 1726.87 609.093 1723 606.395 1721.24 605.691 1720.19 601.508 1722.93 597.503 1724.93 598.25 1729.72 594.911L1729.56 593.013C1725.62 590.875 1724.07 596.249 1718.52 594.469L1717.72 592.439C1718.61 590.66 1719.59 589.273 1719.48 587.341 1712.77 587.333 1699.4 597.767 1696.36 586.282 1698.03 583.943 1726.17 573.93 1731.01 571.779z"></path>
  <path fill="#C9C6C7" d="M 1748.3 588.033 C 1748.91 589.918 1749.1 591.292 1750.59 592.54 C 1745.46 592.778 1738.32 594.712 1733.17 595.926 C 1738.27 593.402 1743.32 590.77 1748.3 588.033 z"></path>
  <path fill="#23242C" d="M 1273.68 1139.13 C 1296.21 1138.37 1313.35 1158.02 1286.37 1166.93 C 1264.73 1167.98 1245.23 1150.14 1273.68 1139.13 z"></path>
  <path fill="#FCFBFB" d="M 1273.01 1147.11 C 1279.03 1147.2 1287.09 1146.72 1289.53 1153.31 C 1288.73 1156.49 1288.69 1156.58 1286.35 1158.95 C 1279.7 1159.37 1271.44 1159.15 1269.26 1151.44 C 1270.69 1148.21 1269.96 1149.33 1273.01 1147.11 z"></path>
  <path fill="#23242C" d="M 714.146 1075.62 C 708.454 1077.73 695.897 1083.06 690.457 1080.25 C 692.33 1073.68 714.817 1064.78 721.327 1062.94 C 724.377 1065.35 727.067 1067.35 729.782 1070.16 L 719.961 1080.45 C 726.642 1078.95 736.072 1077.01 742.911 1078.03 L 744.403 1079.4 C 742.328 1086.49 721.045 1098.24 714.924 1097.22 L 711.578 1094.83 L 712.944 1089.03 C 709.158 1089.68 709.977 1090.11 706.966 1088.84 C 705.69 1083.65 710.809 1079.4 714.146 1075.62 z"></path>
  <path fill="#F0EFF0" d="M 712.944 1089.03 C 717.516 1085.5 722.615 1084.52 728.21 1083.27 C 722.753 1086.26 714.684 1089.79 711.578 1094.83 L 712.944 1089.03 z"></path>
  <path fill="#23242C" d="M 1599.72 995.697 C 1602.87 995.649 1604.56 995.206 1605.83 998.385 L 1603.53 1000.65 C 1615.86 999.542 1640.17 1008.95 1618.81 1020.07 C 1599.61 1027.32 1573.65 1011.42 1599.72 995.697 z"></path>
  <path fill="#FCFBFB" d="M 1609.65 1008.23 C 1613.41 1008.43 1611.77 1007.87 1614.83 1009.78 L 1615.05 1011.98 C 1612.72 1015.56 1614.01 1014.38 1608.92 1016.02 C 1605.5 1015.5 1605.11 1015.61 1602.4 1013.66 L 1602.13 1011.79 C 1604.85 1008.85 1605.41 1009.42 1609.65 1008.23 z"></path>
  <path fill="#23242C" d="M 1784.05 920.867 C 1786.44 921.173 1787.93 921.718 1789.12 923.672 C 1787.18 927.733 1783.8 926.993 1781.28 930.844 C 1788.79 929.858 1804.71 923.969 1809.45 936.432 C 1810.52 939.249 1808.16 942.574 1806.47 944.768 C 1782.06 956.122 1754.62 931.561 1784.05 920.867 z"></path>
  <path fill="#FCFBFB" d="M 1793.57 933.872 C 1795.44 934.982 1796.42 935.747 1798.1 937.051 L 1798.26 939.069 C 1795.93 941.396 1793.62 941.494 1790.32 942.221 C 1786.82 940.828 1787 941.564 1785.48 939.005 C 1786.91 936.415 1790.7 935.199 1793.57 933.872 z"></path>
  <path fill="#23242C" d="M1924.48 718.99C1927.06 719.907 1928.21 721.192 1929.46 723.414 1929.61 726.87 1927.92 728.407 1925.83 731.313 1930.95 729.743 1938.36 726.125 1942.51 729.874 1944.88 737.623 1927.17 742.155 1920.3 745.347 1914.98 747.458 1911.48 746.245 1909.23 740.861 1909.43 736.159 1912.77 737.828 1916.3 732.287 1912.65 729.073 1906.88 733.021 1902.99 727.527 1907.08 721.188 1918.47 724.492 1924.48 718.99zM1438.67 1068.88C1445.25 1068.58 1464.64 1083.66 1466.07 1089.52L1464.8 1091.42C1458.48 1092.42 1453.47 1087.08 1448.25 1083.77 1440.64 1078.95 1442.62 1078.6 1434.21 1080.89 1433.04 1085.15 1439.85 1085.39 1442.15 1094.85L1440.95 1096.04C1432.56 1094.4 1423.37 1085.04 1417.7 1079.19 1422.9 1076.06 1432.49 1072.07 1438.67 1068.88zM877.598 1200.94C882.13 1202.01 884.151 1207.6 888.531 1205.68 888.835 1203.51 888.696 1202.66 890.06 1201 895.476 1201.15 906.283 1208.86 909.714 1213.02 909.899 1215.67 910.207 1214.47 908.645 1216.73 903.559 1218.01 898.32 1210.06 891.837 1208.8 893.302 1213.39 896.819 1216.04 900.366 1219.52 894.468 1222.54 891.806 1223.96 885.531 1225.83 882.28 1222.22 876.096 1216.37 874.708 1212.2 877.841 1207.89 877.536 1207.26 875.517 1203.04L877.598 1200.94zM1953.21 851.066C1957.22 852.717 1965.29 861.261 1968.69 864.706 1961.86 867.749 1955.89 870.319 1948.86 872.979 1944.65 871.747 1937.41 867.66 1934.52 864.247 1932.58 856.398 1947.05 853.443 1953.21 851.066z"></path>
  <path fill="#FCFBFB" d="M 1949.01 858.13 C 1952.86 857.271 1956.4 858.403 1957.66 862.283 C 1955.88 865.692 1955.3 865.137 1951.32 867.089 C 1947.3 867.275 1942.82 866.124 1941.89 861.832 C 1944 858.985 1945.1 859.386 1949.01 858.13 z"></path>
  <path fill="#23242C" d="M 435.753 853.918 C 444.114 858.979 446.465 859.148 443.09 868.388 L 443.965 869.604 C 445.722 868.667 446.963 867.84 448.604 866.755 C 452.324 867.497 451.13 867.222 454.264 870.488 C 455.542 871.758 455.416 871.809 457.15 872.189 L 460.063 873.019 L 460.607 874.889 C 457.724 879.203 454.944 880.192 449.939 881.251 C 446.917 880.509 447.95 881.331 446.33 879.333 L 443.819 875.648 C 436.154 869.49 429.449 866.119 422.328 859.287 C 427.583 856.586 430.078 855.742 435.753 853.918 z"></path>
  <path fill="#23242C" d="M 454.264 870.488 C 455.542 871.758 455.416 871.809 457.15 872.189 L 460.063 873.019 L 460.607 874.889 C 457.724 879.203 454.944 880.192 449.939 881.251 C 446.917 880.509 447.95 881.331 446.33 879.333 L 443.819 875.648 C 446.739 873.387 450.761 872.033 454.264 870.488 z"></path>
  <path fill="#F0EFF0" d="M 454.264 870.488 C 455.542 871.758 455.416 871.809 457.15 872.189 C 453.035 876.713 448.902 876.376 446.33 879.333 L 443.819 875.648 C 446.739 873.387 450.761 872.033 454.264 870.488 z"></path>
  <path fill="#23242C" d="M1907.3 708.876 1909.06 708.968C1912.58 710.863 1914.21 711.534 1913.35 715.631 1908.49 720.827 1895.39 724.994 1888.36 727.663 1884.7 727.026 1881.96 725.932 1881.33 722.223 1884.42 717.245 1901.23 711.384 1907.3 708.876zM1100.16 1215.71C1109.31 1215.66 1122.87 1228.14 1128.7 1235.05 1130.01 1236.59 1129.14 1238.58 1128.75 1240.34 1121.28 1240.41 1102.88 1224.93 1099.33 1218.94L1100.16 1215.71zM601.914 984.477 602.852 984.784C605.323 989.894 608.034 987.398 610.783 993.707 610.566 997.528 611.262 995.951 608.821 998.683 603.254 1000.41 599.924 999.104 594.807 996.87 593.823 993.852 594.222 993.152 595.191 990.144 591.357 987.302 589.309 992.915 585.853 987.476 588.954 982.533 595.185 987.046 601.914 984.477zM429.239 687.324C429.194 686.803 429.521 685.9 429.679 685.319 439.001 680.757 445.654 677.73 455.671 675.047L454.885 678.003C449.461 681.349 442.807 685.846 436.93 687.902L436.123 689.029C433.53 686.521 433.241 685.805 429.239 687.324z"></path>
  <path fill="#F0EFF0" d="M 454.885 678.003 C 454.718 681.662 454.941 682.427 453.143 685.443 C 448.326 688.484 445.235 688.705 439.604 689.707 L 436.93 687.902 C 442.807 685.846 449.461 681.349 454.885 678.003 z"></path>
  <path fill="#FCFBFB" d="M 1528.05 380.627 C 1539.76 384.902 1544.81 385.105 1556.77 387.729 C 1581.63 388.786 1587.84 387.823 1612 382.684 C 1617.25 446.88 1626.84 511.336 1635.62 575.161 C 1636.67 582.81 1637.85 591.16 1639.62 598.643 C 1632.54 609.509 1623.06 614.328 1610.84 618.434 C 1577.46 627.718 1541.98 628.268 1510.7 611.718 C 1508.88 605.199 1503.13 586.725 1503.52 581.095 C 1508.2 514.621 1524.93 447.063 1528.05 380.627 z"></path>
  <path fill="#E79A8F" d="M 1556.77 387.729 C 1581.63 388.786 1587.84 387.823 1612 382.684 C 1617.25 446.88 1626.84 511.336 1635.62 575.161 C 1636.67 582.81 1637.85 591.16 1639.62 598.643 C 1632.54 609.509 1623.06 614.328 1610.84 618.434 C 1612.72 610.589 1608.9 585.596 1608.06 575.65 L 1596.94 453.997 C 1595.15 434.125 1592.4 411.964 1591.89 392.346 C 1584.57 392.399 1562.98 390.998 1556.77 387.729 z"></path>
  <path fill="#FCFBFB" d="M 1250.05 327.134 L 1251.07 328.476 C 1241.83 358.932 1238.23 366.66 1232.17 399.141 C 1156.34 427.423 1070.8 466.245 995.67 498.052 L 918.03 530.503 C 904.391 536.06 885.342 542.568 872.826 549.291 C 871.529 546.805 871.763 548.062 871.846 545.446 C 879.312 538.429 880.829 534.881 881.149 525.378 C 899.4 511.535 903.246 495.604 900.115 473.788 C 942.098 456.629 983.915 439.065 1025.56 421.099 L 1164.98 363.052 C 1193.2 351.226 1221.37 337.931 1250.05 327.134 z"></path>
  <path fill="#23242C" d="M1019 441.961C1024.58 446.166 1038.36 454.844 1038.99 461.563 1036.06 464.403 1036.49 463.578 1031.9 464.725 1026.21 460.146 1015.36 449.498 1008.91 448.326L1009.07 447.134C1012.21 444.204 1014.99 443.497 1019 441.961zM1190.06 372.505C1194.9 372.605 1205.64 377.593 1206.46 382.586 1203.79 384.916 1203.67 385.166 1200.34 386.033 1196.62 385.543 1194.23 382.927 1191.18 380.431L1190.56 380.986 1195.05 385.301 1196.12 387.138 1195.41 388.993C1189.73 390.625 1178.7 385.857 1177.02 380.173 1180.41 375.819 1184.9 380.138 1188.45 378.189 1188.43 375.079 1188.47 375.242 1190.06 372.505z"></path>
  <path fill="#23242C" d="M 1199.92 369.865 C 1208.57 369.712 1215.2 371.85 1215.28 381.381 C 1207.71 381.077 1200.89 377.925 1199.92 369.865 z"></path>
  <path fill="#E79A8F" d="M 1193.29 237.152 C 1198.31 232.755 1205.93 227.806 1211.51 223.9 C 1239.33 204.435 1266.95 184.493 1295.6 166.264 C 1301.08 162.775 1308.16 159.303 1314.84 161.61 C 1320.97 163.937 1316.1 172.173 1317.97 177.784 C 1321 179.516 1319.73 179.078 1323.52 178.887 C 1330.44 173.237 1329.02 152.604 1333.01 146.276 C 1337.15 150.181 1338.29 173.626 1338.72 179.838 C 1343.24 187.024 1362.28 196.967 1372.5 205.698 C 1368.67 210.324 1356.72 228.591 1353.05 230.259 C 1350.55 231.395 1348.27 232.04 1347.15 234.751 C 1344.6 240.86 1349.94 251.549 1352.77 256.958 C 1357.48 265.947 1363.96 271.558 1372.73 276.511 C 1376.31 289.492 1376.43 301.684 1379.46 313.419 C 1366.76 321.153 1356.12 329.081 1352.5 344.208 C 1346.51 369.228 1362.66 378.729 1381.57 387.662 C 1380.09 399.845 1378.68 411.306 1376.57 423.404 C 1367.91 426.615 1358.43 431.153 1349.72 434.787 C 1339 439.258 1322.97 444.444 1313.03 450.055 C 1315.58 386.546 1324.23 335.289 1330.85 273.455 C 1336.31 269.346 1347.03 257.686 1345.06 250.535 C 1342.44 248.703 1343.28 249.278 1339.33 249.456 C 1337.47 251.758 1328.06 263.475 1326.5 264.573 C 1316.21 271.813 1298.26 275.396 1285.83 276.588 C 1278.8 277.262 1270.81 278.019 1264.08 278.199 C 1258.75 281.784 1246.02 290.717 1241.02 293.121 C 1235.56 294.397 1221.75 294.653 1219.15 288.958 L 1221.01 288.061 C 1225.51 288.744 1226.93 288.371 1231.21 287.265 C 1237.46 283.923 1248.51 279.892 1250.06 272.8 C 1248.72 269.49 1247.06 269.023 1243.82 267.164 C 1218.98 284.535 1209.43 282.827 1199.18 252.211 C 1197.55 247.357 1195.29 241.886 1193.29 237.152 z"></path>
  <path fill="#FCFBFB" d="M 1193.29 237.152 C 1198.31 232.755 1205.93 227.806 1211.51 223.9 C 1239.33 204.435 1266.95 184.493 1295.6 166.264 C 1301.08 162.775 1308.16 159.303 1314.84 161.61 C 1320.97 163.937 1316.1 172.173 1317.97 177.784 C 1321 179.516 1319.73 179.078 1323.52 178.887 C 1330.44 173.237 1329.02 152.604 1333.01 146.276 C 1337.15 150.181 1338.29 173.626 1338.72 179.838 C 1343.19 263.633 1257.78 246.553 1243.82 267.164 C 1218.98 284.535 1209.43 282.827 1199.18 252.211 C 1197.55 247.357 1195.29 241.886 1193.29 237.152 z"></path>
  <path fill="#23242C" d="M 1286.38 197.934 C 1298.86 196.576 1304.67 206.754 1294.92 215.953 C 1280.18 214.979 1278.45 208.783 1286.38 197.934 z"></path>
  <path fill="#FCFBFB" d="M1231.21 287.265C1235.48 289.268 1237.35 289.968 1241.02 293.121 1235.56 294.397 1221.75 294.653 1219.15 288.958L1221.01 288.061C1225.51 288.744 1226.93 288.371 1231.21 287.265zM1018.85 1081.04C1024.68 1082.64 1121.71 1160.16 1137.45 1170.89 1102.34 1185.18 1067.01 1202.25 1031.99 1217 1017.84 1222.96 1002.57 1230.45 988.249 1235.53 978.608 1234.76 954.571 1212.44 945.652 1205.36L868.744 1144.69C900.568 1131.72 932.241 1118.39 963.758 1104.69 977.521 1098.65 1005.98 1084.67 1018.85 1081.04zM1052.51 918.916C1056.65 919.997 1158.64 997.885 1169.55 1006.93 1120.68 1026.67 1070.21 1049.93 1021.61 1071.04 1015.27 1069.78 916.984 993.079 904.006 982.738 951.067 962.181 1004.88 937.691 1052.51 918.916zM1333.86 946.946C1339.94 947.785 1437.45 1022.46 1450.93 1033.61 1442.95 1038.55 1421.33 1047.74 1411.47 1052.16 1376.11 1068.02 1340.14 1082.6 1304.79 1098.62 1301.57 1097.77 1200.39 1019.19 1188.16 1009.97 1206.04 1001.06 1230.15 991.386 1248.88 983.359 1277.11 970.993 1305.44 958.855 1333.86 946.946zM771.451 892.894 772.735 892.711C781.91 895.848 873.723 969.196 887.236 979.548 875.727 985.531 857.841 992.493 845.513 997.921L740.39 1043.1C734.867 1042.06 639.59 966.27 624.37 956.207 673.064 934.499 722.253 915.189 771.451 892.894zM1085.51 757.123C1092.37 760.653 1126.93 787.481 1134.66 793.732 1153.47 808.954 1183.16 828.196 1199.75 844.366 1192.73 846.808 1185.21 850.209 1178.47 853.4 1137.65 872.719 1094.91 888.869 1053.93 907.589 1048.17 903.589 1041.75 898.558 1036.27 894.148 1004.79 868.819 969.882 846.055 938.914 820.3L1037.79 777.48C1052.33 771.258 1071.77 764.053 1085.51 757.123zM1120.5 598.96C1128.94 601.375 1225.9 674.738 1233.72 683.069 1220.65 689.445 1202.28 696.602 1188.47 702.453L1122.97 730.626C1112.03 735.263 1097.73 740.149 1087.53 745.345 1084.66 745.545 986.921 669.669 975.411 660.705 989.661 652.554 1011.61 645.217 1026.98 638.423 1058.03 624.708 1088.99 611.587 1120.5 598.96zM809.358 734.981C816.801 737.925 835.841 753.802 843.537 759.165 869.686 777.387 895.64 800.329 921.706 818.069 906.017 825.724 888.371 832.812 872.366 839.756 840.305 853.675 808.156 867.39 775.92 880.901 775.011 880.884 773.909 880.864 772.615 880.84 740.058 857.92 693.479 818.34 662.672 796.756 699.986 779.955 738.164 764.413 775.802 748.34 786.742 743.669 798.163 738.957 809.358 734.981zM1156.05 441.924C1159.65 443.462 1184.57 462.562 1189.35 466.102 1214.74 484.9 1240.71 506.599 1266.97 523.899 1253.39 531.164 1125.65 586.438 1119.43 586.15 1107.56 579.07 1090.08 565.877 1078.61 557.603 1054.41 540.242 1030.4 522.634 1006.56 504.78 1056.33 484.441 1106.06 462.51 1156.05 441.924zM804.299 519.299C808.264 523.488 806.036 531.749 817.525 542.062 814.199 558.082 811.945 567.353 803.766 581.766 788.51 588.789 768.807 595.76 752.675 602.522L640.355 650.591C619.974 659.374 598.661 666.168 578.845 675.972 576.578 677.094 571.123 683.478 567.743 685.841 563.489 672.959 554.358 636.674 551.857 623.236 613.541 598.908 674.887 573.729 735.876 547.707 753.757 540.169 789.246 527.256 804.299 519.299z"></path>
  <path fill="#23242C" d="M 754.328 558.177 C 769.973 555.907 789.239 570.49 767.533 581.463 C 763.959 583.269 759.246 584.858 755.447 586.332 C 748.733 585.949 739.124 574.157 730.915 568.016 C 739.021 564.349 745.95 561.21 754.328 558.177 z"></path>
  <path fill="#FCFBFB" d="M 766.163 569.871 C 768.632 570.75 767.688 570.006 769.14 572.113 C 766.533 576.52 759.331 577.902 754.302 579.411 C 751.315 577.828 752.16 578.974 751.151 576.317 C 753.112 574.034 762.609 571.203 766.163 569.871 z"></path>
  <path fill="#F0EFF0" d="M 756.957 562.922 C 759.074 563.012 759.002 562.87 760.667 564.131 C 759.631 566.447 754.015 568.916 750.883 571.116 C 748.318 571.611 747.667 571.952 745.216 570.979 L 745.287 569.55 C 748.475 566.632 753.003 564.8 756.957 562.922 z"></path>
  <path fill="#23242C" d="M 592.131 628.065 C 594.456 627.838 598.574 627.296 600.282 628.904 C 604.172 632.566 611.519 636.956 612.649 642.125 C 608.82 644.267 593.023 639.112 587.266 645.461 C 588.304 646.852 589.131 648.127 590.084 649.567 L 589.479 651.906 L 587.562 652.525 C 582.457 650.109 574.626 640.998 570.381 636.488 C 575.558 633.86 586.196 630.339 592.131 628.065 z"></path>
  <path fill="#FCFBFB" d="M 1390.98 389.368 C 1402.78 392.102 1419.73 395.633 1431.6 392.709 C 1435.92 391.949 1439.65 391.347 1443.88 390.133 C 1446.2 418.615 1460.67 459.33 1473.74 485.089 C 1478.32 494.133 1486.86 503.477 1490.89 511.361 C 1491.33 532.109 1482.6 539.057 1464.23 547.107 C 1427.25 558.173 1372.42 561.365 1346.7 526.412 C 1344.87 498.893 1352.97 505.655 1363.26 487.262 C 1378.32 460.326 1390.99 420.398 1390.98 389.368 z"></path>
  <path fill="#E79A8F" d="M 1431.6 392.709 C 1435.92 391.949 1439.65 391.347 1443.88 390.133 C 1446.2 418.615 1460.67 459.33 1473.74 485.089 C 1478.32 494.133 1486.86 503.477 1490.89 511.361 C 1491.33 532.109 1482.6 539.057 1464.23 547.107 C 1442.74 492.652 1437.54 450.673 1431.6 392.709 z"></path>
  <path fill="#FCFBFB" d="M 1632.74 756.259 C 1644.22 755.484 1648.5 754.974 1659.08 750.737 C 1667.25 784.495 1667.49 818.991 1679.9 854.595 C 1688.75 860.643 1701.99 869.507 1692.77 882.395 C 1690.04 886.211 1683.4 890.581 1679.05 892.424 C 1654.16 904.27 1630.27 906.055 1603.52 898.122 C 1590.65 894.304 1568.64 883.926 1573.54 865.93 C 1574.7 861.691 1580.64 862.789 1584.89 860.673 C 1592.52 852.46 1605.3 769.192 1609.68 751.175 C 1618.69 754.713 1623.1 756.162 1632.74 756.259 z"></path>
  <path fill="#E79A8F" d="M 1632.74 756.259 C 1644.22 755.484 1648.5 754.974 1659.08 750.737 C 1667.25 784.495 1667.49 818.991 1679.9 854.595 C 1688.75 860.643 1701.99 869.507 1692.77 882.395 C 1690.04 886.211 1683.4 890.581 1679.05 892.424 C 1679.55 890.204 1681.65 886.33 1682.73 884.135 C 1674.25 877.901 1671.11 876.638 1661.1 872.779 C 1662.68 869.052 1666 860.623 1664.9 856.911 C 1662 847.096 1660.33 834.708 1657.34 825.264 C 1651.83 807.814 1650.59 774.714 1642.65 759.238 C 1639 756.116 1637.42 756.813 1632.74 756.259 z"></path>
  <path fill="#FCFBFB" d="M 1761.26 754.071 L 1757.13 768.979 C 1749.82 774.803 1739.52 780.215 1739.12 790.757 C 1738.67 802.618 1735.95 819.541 1744.71 829.026 C 1763.32 849.173 1802.97 852.69 1828.17 848.378 C 1846.53 841.662 1870.5 840.51 1878.78 818.34 C 1878.84 803.284 1881.16 793.742 1875.78 779.864 C 1864.04 772.974 1861.68 769.99 1856.6 757.617 C 1872.81 770.139 1887.04 782.068 1903.98 794.228 C 1911.96 799.958 1934.88 816.876 1941.65 823.305 C 1893.32 844.586 1843.15 862.506 1794.93 884.223 C 1790.09 886.402 1785.01 888.384 1780.28 890.75 C 1762.32 879.115 1741.1 861.104 1723.71 848.021 C 1711.89 839.129 1687.64 821.87 1678.55 811.805 C 1676.92 804.107 1675.86 798.027 1674.73 790.273 C 1700.03 780.607 1737.32 765.684 1761.26 754.071 z"></path>
  <path fill="#F7B7AC" d="M 1878.78 818.34 L 1883.42 819.326 C 1881.73 828.754 1879.77 834.824 1871.43 840.354 C 1861.47 846.95 1839.6 850.101 1828.17 848.378 C 1846.53 841.662 1870.5 840.51 1878.78 818.34 z"></path>
  <path fill="#E79A8F" d="M 1875.78 779.864 C 1880.77 782.445 1882.84 785.296 1885.8 790.086 C 1884.38 800.967 1884.59 809.315 1883.42 819.326 L 1878.78 818.34 C 1878.84 803.284 1881.16 793.742 1875.78 779.864 z"></path>
  <path fill="#FCFBFB" d="M 1784.93 696.195 C 1797.41 700.986 1807.68 701.693 1821.04 700.64 L 1830.46 697.606 C 1838.18 721.658 1843.82 748.594 1852.59 771.743 C 1856.55 782.177 1889.82 795.297 1856.58 811.386 C 1851.54 813.654 1845.73 816.392 1840.47 817.852 C 1812.14 825.713 1767.48 824.09 1749.05 797.832 C 1746.28 777.542 1755.57 787.983 1762.25 784.191 C 1772.31 757.774 1778.03 723.788 1784.93 696.195 z"></path>
  <path fill="#E79A8F" d="M 1830.46 697.606 C 1838.18 721.658 1843.82 748.594 1852.59 771.743 C 1856.55 782.177 1889.82 795.297 1856.58 811.386 C 1852.44 797.078 1849.19 798.201 1838.38 789.265 C 1837.58 786.195 1838.6 777.215 1837.8 774.695 C 1830.42 751.513 1827.88 723.351 1821.04 700.64 L 1830.46 697.606 z"></path>
  <path fill="#FCFBFB" d="M 1376.86 782.631 C 1401.35 802.957 1424.91 823.016 1448.16 844.79 C 1458.31 854.304 1472.42 862.38 1482.79 872.014 C 1439.84 893.646 1381.68 917.032 1336.34 935.15 C 1328.78 930.312 1322.13 924.976 1315.01 919.588 C 1285.88 897.56 1255.8 877.005 1227.46 853.901 C 1224.26 851.286 1221.3 849.111 1218.27 846.233 C 1242 836.109 1288.81 818.014 1309.81 806.429 C 1306.45 814.104 1302.96 822.531 1299.2 829.953 C 1291.85 833.758 1285.87 838.389 1283.47 846.654 C 1281.06 854.952 1280.78 868.83 1285.59 876.338 C 1301.3 900.853 1337.43 902.349 1362.54 901.897 C 1376.73 899.387 1396.68 894.964 1407.42 884.998 C 1418.45 874.756 1418.55 864.286 1419.04 850.643 C 1412.97 831.69 1405.45 837.593 1395.75 825.592 C 1388.18 816.215 1380.83 794.46 1376.86 782.631 z"></path>
  <path fill="#E79A8F" d="M 1419.04 850.643 C 1445.77 890.178 1391.4 902.615 1362.54 901.897 C 1376.73 899.387 1396.68 894.964 1407.42 884.998 C 1418.45 874.756 1418.55 864.286 1419.04 850.643 z"></path>
  <path fill="#FCFBFB" d="M784.606 600.061 785.57 600.114C786.181 602.472 782.024 605.864 780.761 608.552 775.167 620.46 773.726 648.636 784.158 657.939 800.013 672.079 829.113 677.374 849.876 676.832 869.244 676.325 895.037 670.893 909.32 656.71 917.783 647.917 916.344 636.779 916.007 625.587 928.839 634.3 945.261 648.562 957.407 658.746 938.619 667.677 917.072 676.31 897.746 684.479 869.576 697.399 839.121 709.536 810.484 722.086 792.924 710.162 773.416 694.682 756.163 681.675 738.63 668.455 715.363 651.393 699.175 636.724 722.146 625.093 760.139 610.247 784.606 600.061zM453.13 704.109C473.849 732.63 520.833 731.244 550.808 720.498 560.1 715.259 562.782 713.527 568.183 704.278 572.727 713.056 586.375 743.977 588.841 753.065 585.066 763.591 579.702 773.405 569.314 778.827 535.424 796.991 470.599 801.54 441.457 770.167 437.475 765.88 436.61 760.807 435.257 755.23 440.376 737.606 446.404 721.177 453.13 704.109z"></path>
  <path fill="#E79A8F" d="M 550.808 720.498 C 560.1 715.259 562.782 713.527 568.183 704.278 C 572.727 713.056 586.375 743.977 588.841 753.065 C 585.066 763.591 579.702 773.405 569.314 778.827 C 574.561 765.576 559.849 744.564 555.883 731.592 C 554.881 728.315 552.511 723.576 550.808 720.498 z"></path>
  <path fill="#FCFBFB" d="M 482.377 594.132 C 496.629 597.891 509.626 597.876 524.249 598.171 C 529.391 597.578 530.85 597.137 535.708 595.622 C 543.295 624.358 548.957 653.639 556.519 682.363 C 560.66 698.091 562.064 703.088 546.063 711.262 C 525.8 718.005 508.085 720.056 487.09 714.773 C 478.198 713.297 460.037 704.589 462.53 693.249 C 469.507 661.517 474.182 625.312 482.377 594.132 z"></path>
  <path fill="#E79A8F" d="M 524.249 598.171 C 529.391 597.578 530.85 597.137 535.708 595.622 C 543.295 624.358 548.957 653.639 556.519 682.363 C 560.66 698.091 562.064 703.088 546.063 711.262 C 545.422 708.347 543.674 705.085 542.807 701.75 C 533.84 667.249 529.402 633.373 524.249 598.171 z"></path>
  <path fill="#FCFBFB" d="M 1277.49 288.678 L 1277.64 286.654 C 1293.29 283.155 1301.61 286.382 1320.34 278.246 C 1319.94 281.594 1319.07 290.426 1318.31 293.24 L 1302.69 454.425 C 1284.14 447.251 1255.93 427.148 1240 415.605 C 1243.05 376.653 1262.15 324.661 1277.49 288.678 z"></path>
  <path fill="#E79A8F" d="M 1277.49 288.678 L 1277.64 286.654 C 1293.29 283.155 1301.61 286.382 1320.34 278.246 C 1319.94 281.594 1319.07 290.426 1318.31 293.24 C 1310.46 295.002 1299.37 310.736 1288.16 306.214 C 1276.87 301.66 1280.97 295.402 1277.49 288.678 z"></path>
  <path fill="#FCFBFB" d="M1401.28 623.208C1406.63 625.429 1450.85 660.032 1458.42 665.872 1455.4 671.439 1448.5 686.377 1444.72 690.283 1431.87 703.565 1429.26 696.527 1420.93 715.062 1422.12 724.221 1421.5 728.183 1424.7 737.066L1420.1 745.285C1410.2 750.307 1401.81 754.616 1392.34 760.346 1397.3 752.787 1398 751.399 1393.8 743.661L1393.14 742.446C1393.23 739.305 1394.14 736.936 1395.26 734.038 1406.77 704.348 1391.78 677.113 1363.19 666.874 1324.56 655.815 1295.69 680.675 1294.87 719.979 1281.37 707.915 1264.81 697.722 1252.08 685.884 1260.53 681.046 1285.65 671.333 1295.71 667.078L1401.28 623.208zM1682.17 828.769C1697.63 840.174 1713.62 853.446 1729.07 865.218 1738.04 872.046 1761.12 889.155 1767.54 896.565 1752.83 901.658 1737.34 909.194 1722.89 915.437L1649.37 946.999C1640.8 950.701 1624.77 958.452 1616.59 961.291 1593.16 944.023 1569.94 926.482 1546.92 908.672 1532.96 898.084 1513.7 884.658 1501.35 872.995L1554.61 848.491C1561.38 845.418 1574.98 838.836 1581.63 836.609 1577.3 851.875 1575.53 848.193 1567.32 859.74 1560.65 869.119 1559.02 889.14 1565.27 899.402 1578.93 921.825 1604.97 925.552 1628.49 929.31 1649.16 928.962 1678.34 925.636 1693.81 910.535 1705.74 898.885 1704.85 884.899 1704.83 869.512 1703.19 857.943 1695.23 853.214 1686.56 846.323 1684.97 840.394 1683.46 834.786 1682.17 828.769z"></path>
  <path fill="#E79A8F" d="M 1704.83 869.512 C 1716.24 871.735 1722.2 878.991 1719.72 890.871 C 1713.76 919.424 1672.93 934.013 1647.16 932.429 C 1641.46 932.079 1634.58 930.023 1628.49 929.31 C 1649.16 928.962 1678.34 925.636 1693.81 910.535 C 1705.74 898.885 1704.85 884.899 1704.83 869.512 z"></path>
  <path fill="#FCFBFB" d="M 1496.18 599.693 L 1497.37 599.963 C 1501.71 613.554 1510.79 632.533 1513.8 643.139 C 1526.6 667.024 1540.06 690.337 1553.51 713.824 C 1556.2 718.511 1552.78 725.305 1548.96 728.655 C 1526.5 742.534 1505.92 743.928 1479.96 740.803 C 1468.99 739.482 1437.05 726.927 1444.5 711.414 C 1462.78 673.345 1488.8 642.753 1496.18 599.693 z"></path>
  <path fill="#E79A8F" d="M 1513.8 643.139 C 1526.6 667.024 1540.06 690.337 1553.51 713.824 C 1556.2 718.511 1552.78 725.305 1548.96 728.655 C 1536.53 714.938 1516.67 661.018 1513.8 643.139 z"></path>
  <path fill="#FCFBFB" d="M 825.664 546.28 C 837.147 549.832 841.181 551.618 853.346 550.72 L 863.668 548.189 C 864.489 563.655 876.46 591.444 886.815 602.962 C 893.273 610.146 902.956 618.432 907.458 626.855 C 901.079 634.092 892.239 641.09 882.791 643.59 C 858.1 652.992 809.195 652.965 788.509 630.778 C 779.079 620.663 798.195 610.308 802.842 604.03 C 815.035 587.562 821.36 566.364 825.664 546.28 z"></path>
  <path fill="#E79A8F" d="M 863.668 548.189 C 864.489 563.655 876.46 591.444 886.815 602.962 C 893.273 610.146 902.956 618.432 907.458 626.855 C 901.079 634.092 892.239 641.09 882.791 643.59 C 881.465 635.102 878.257 619.252 874.735 611.86 C 869.886 601.682 859.132 554.381 853.346 550.72 L 863.668 548.189 z"></path>
  <path fill="#FCFBFB" d="M 1328.68 777.614 C 1334.36 778.512 1339.94 779.533 1345.68 779.69 C 1352.29 779.391 1361.26 779.276 1367.7 778.684 C 1369.92 794.466 1375.54 809.461 1383.38 823.319 C 1384.82 825.856 1392.42 838.747 1393.87 839.097 C 1418.01 844.922 1403.94 859.356 1390.1 867.056 C 1360.19 877.972 1317.73 882.414 1293.7 854.156 C 1286.72 845.948 1303.7 839.084 1307.05 833.557 C 1317.77 815.891 1323.75 797.578 1328.68 777.614 z"></path>
  <path fill="#E79A8F" d="M 1367.7 778.684 C 1369.92 794.466 1375.54 809.461 1383.38 823.319 C 1384.82 825.856 1392.42 838.747 1393.87 839.097 C 1418.01 844.922 1403.94 859.356 1390.1 867.056 L 1390.07 865.962 C 1389.92 857.809 1378.85 845.405 1374.98 836.87 C 1371.31 828.754 1364 815.598 1361.82 807.195 C 1359.64 798.788 1358.81 790.355 1356.34 781.408 C 1354.17 779.8 1348.7 779.893 1345.68 779.69 C 1352.29 779.391 1361.26 779.276 1367.7 778.684 z"></path>
  <path fill="#FCFBFB" d="M 1165.96 436.106 C 1187.6 428.17 1209.34 417.379 1231.06 409.977 C 1230.93 420.842 1230.86 430.424 1229.81 441.225 C 1232.05 443.17 1235.52 445.541 1237.99 447.346 L 1238.76 447.689 C 1252.26 453.845 1264.47 462.008 1276.99 469.854 C 1284.92 474.82 1301.53 487.441 1311.17 483.05 C 1329.17 474.848 1347.35 467.517 1365.69 460.143 L 1359.48 472.243 C 1357.46 477.099 1354.15 483.168 1351.71 487.962 C 1332.43 499.21 1301.84 508.875 1279.89 519.743 C 1252.61 502.042 1225.84 479.576 1199.35 460.531 C 1188.11 452.449 1177.94 443.397 1165.96 436.106 z"></path>
  <path fill="#E79A8F" d="M 1237.99 447.346 L 1238.76 447.689 C 1252.26 453.845 1264.47 462.008 1276.99 469.854 C 1284.92 474.82 1301.53 487.441 1311.17 483.05 C 1329.17 474.848 1347.35 467.517 1365.69 460.143 L 1359.48 472.243 C 1357.13 472.37 1349.51 475.45 1346.57 476.432 C 1328.76 482.379 1320.55 487.629 1301.6 489.008 C 1296.62 486.639 1292.85 483.37 1288.16 480.97 C 1271 472.188 1251.4 461.555 1237.99 447.346 z"></path>
  <path fill="#FCFBFB" d="M 518.952 410.92 C 525.736 412.491 532.372 414.647 538.785 417.363 C 552.395 422.846 578.789 436.694 572.218 455.932 C 570.235 461.74 559.046 468.736 553.083 469.961 C 540.603 475.722 527.006 478.662 513.26 478.572 C 468.143 478.205 413.952 445.874 483.57 417.977 C 489.839 415.465 504.201 409.346 508.839 416.338 C 508.425 420.765 507.923 431.677 515.373 430.182 C 519.249 425.398 518.801 416.98 518.952 410.92 z"></path>
  <path fill="#E79A8F" d="M 538.785 417.363 C 552.395 422.846 578.789 436.694 572.218 455.932 C 570.235 461.74 559.046 468.736 553.083 469.961 C 560.26 455.656 557.465 442.46 547.798 430.11 C 544.322 425.667 539.682 422.615 538.785 417.363 z"></path>
  <path fill="#FCFBFB" d="M 852.261 523.736 C 825.137 532.882 792.438 502.452 801.788 475.278 C 815.609 435.112 864.904 431.287 886.795 468.153 C 891.845 476.226 893.178 485.484 890.989 494.752 C 888.613 504.752 882.227 513.334 873.33 518.481 C 866.296 522.632 860.286 524.08 852.261 523.736 z"></path>
  <path fill="#E79A8F" d="M 886.795 468.153 C 891.845 476.226 893.178 485.484 890.989 494.752 C 888.613 504.752 882.227 513.334 873.33 518.481 C 866.296 522.632 860.286 524.08 852.261 523.736 C 870.617 511.827 888.524 491.418 886.795 468.153 z"></path>
  <path fill="#FCFBFB" d="M 1430.25 743.274 C 1441.19 752.887 1449.4 758.12 1462.94 763.33 C 1495.74 771.354 1543.88 770.983 1568.35 744.832 C 1574.86 763.142 1578.99 780.003 1558.39 791.96 C 1523.26 815.727 1448.24 814.536 1423.39 776.377 C 1423.6 761.601 1425.76 757.297 1430.25 743.274 z"></path>
  <path fill="#E79A8F" d="M 1568.35 744.832 C 1574.86 763.142 1578.99 780.003 1558.39 791.96 L 1559.77 785.964 C 1556.59 775.602 1559.49 776.312 1558.68 769.722 C 1552.38 767.332 1526.83 780.715 1514.07 778.919 C 1499.66 776.89 1472.71 774.223 1462.94 763.33 C 1495.74 771.354 1543.88 770.983 1568.35 744.832 z"></path>
  <path fill="#FCFBFB" d="M 1362.62 752.82 C 1357.81 754.153 1348.1 754.705 1343.05 754.133 C 1285.77 747.663 1296.64 669.456 1352.4 673.532 C 1364.68 674.43 1375.43 683.256 1382.7 692.785 C 1398.16 712.657 1387.17 748.122 1362.62 752.82 z"></path>
  <path fill="#E79A8F" d="M 1382.7 692.785 C 1398.16 712.657 1387.17 748.122 1362.62 752.82 C 1386.88 731.128 1384.08 723.293 1382.7 692.785 z"></path>
  <path fill="#FCFBFB" d="M 452.868 468.275 C 473.334 486.002 508.244 491.607 534.196 486.409 C 544.973 484.055 556.521 481.166 565.411 474.269 C 555.013 498.694 546.322 519.421 538.374 544.902 C 531.722 547.785 528.815 548.609 521.723 550.388 C 507.799 552.096 498.91 550.238 486.318 543.805 C 483.002 537.464 478.369 525.587 475.353 518.57 C 468.198 501.655 460.701 484.887 452.868 468.275 z"></path>
  <path fill="#E79A8F" d="M 534.196 486.409 C 544.973 484.055 556.521 481.166 565.411 474.269 C 555.013 498.694 546.322 519.421 538.374 544.902 C 531.722 547.785 528.815 548.609 521.723 550.388 C 523.357 541.381 524.129 532.473 526.097 523.324 C 528.737 511.044 532.243 498.762 534.196 486.409 z"></path>
  <path fill="#FCFBFB" d="M371.965 762.874C390.839 755.174 410.16 747.001 429.174 739.793 425.907 751.807 424.586 766.664 424.541 779.203 424.453 803.857 456.557 813.762 475.761 818.555 497.526 823.988 517.372 824.199 539.485 821.252 554.9 827.736 572.338 821.424 587.763 816.922L589.862 818.436C562.754 831.457 525.79 847.929 497.661 858.706 458.128 826.152 413.251 795.857 371.965 762.874zM1500.98 368.142C1503.06 369.557 1515.89 386.302 1518.19 389.242 1517.31 399.743 1516.25 410.228 1515.01 420.693 1510.01 417.027 1496.41 404.8 1490.26 409.136 1491.68 418.022 1506.32 427.437 1513.42 432.772 1512.2 441.63 1512.19 451.179 1510.42 459.959 1509.1 466.529 1509.41 466.854 1504.65 470.073 1503.73 470.421 1502.39 470.852 1501.47 471.155 1495.94 472.977 1483.27 459.846 1477.64 456.546 1462.57 447.712 1456.08 406.897 1453.54 389.473 1468.59 384.402 1486.73 375.605 1500.98 368.142zM1650.01 599.546C1659.64 607.946 1686.28 627.565 1692.46 633.766 1647.21 652.099 1597.47 671.628 1552.96 691.2 1542.84 676.275 1533.52 660.825 1525.04 644.915 1543.04 648.94 1557.88 652.463 1576.45 651.921 1604.54 647.349 1630.98 645.163 1650.17 621.832 1652.63 613.029 1651.46 608.729 1650.01 599.546z"></path>
  <path fill="url(#Gradient5)" d="M 1576.45 651.921 C 1604.54 647.349 1630.98 645.163 1650.17 621.832 C 1651.02 628.135 1651.76 631.451 1647.12 636.995 C 1637.02 649.049 1612.14 651.986 1597.23 653.543 C 1589.55 654.344 1583.73 653.569 1576.45 651.921 z"></path>
  <path fill="#FCFBFB" d="M1337.76 504.99 1338.68 505.725C1339.37 511.732 1334.64 529.364 1335.9 538.966 1337.14 548.516 1340.66 557.41 1348.86 563.423 1382.86 588.348 1425.87 587.436 1464.63 575.597 1470.55 573.788 1481.61 565.823 1485.22 565.494 1484.41 569.883 1485.44 575.284 1486.02 579.867 1472.86 584.898 1459.77 590.109 1446.76 595.501 1432.3 601.83 1418.61 605.846 1403.64 612.763 1365.57 587.342 1325.83 552.274 1287.24 527.121 1299.12 520.254 1323.05 512.007 1337.76 504.99zM1424.24 285.04C1437.91 285.256 1446.26 282.642 1459.37 279.236 1458.53 285.998 1456.11 328.748 1452.6 331.824 1450.19 333.938 1446.38 335.738 1443.38 336.827 1425.83 343.467 1406.61 341.291 1390.83 331.403 1389.74 312.829 1386.35 297.612 1382.72 279.423 1401.9 284.062 1405.1 284.32 1424.24 285.04z"></path>
  <path fill="#E79A8F" d="M 1424.24 285.04 C 1437.91 285.256 1446.26 282.642 1459.37 279.236 C 1458.53 285.998 1456.11 328.748 1452.6 331.824 C 1450.19 333.938 1446.38 335.738 1443.38 336.827 C 1437.88 326.921 1431.67 299.274 1424.24 285.04 z"></path>
  <path fill="#FCFBFB" d="M1630.29 683.262C1643.97 683.041 1663.28 686.082 1672.78 697.224 1677.47 702.712 1676.61 707.129 1675.91 713.769 1664.99 724.922 1656.68 726.976 1641.94 729.75 1587.79 731.543 1568.95 693.986 1630.29 683.262zM1798.72 630.328C1807.26 629.191 1827.24 630.646 1834.61 634.691 1873.79 656.198 1839.52 669.596 1818.45 675.275 1767.24 678.518 1741.2 642.368 1798.72 630.328zM1468.96 323.581C1474.64 327.959 1476.37 336.541 1471.82 342.009 1453.55 363.928 1417.97 363.438 1392.67 356.907 1382.99 354.408 1375.33 344.75 1367.09 346.637L1366.37 348.359C1369.28 358.846 1383.37 364.821 1393.26 367.453 1418.37 374.135 1456.01 373.485 1475.57 353.779 1480.82 348.492 1482.13 342.768 1483.93 335.841 1485.53 348.414 1485.79 350.111 1481.97 362.02 1448.4 402.019 1310.19 383.218 1380.49 323.586 1380.65 326.151 1380.89 331.152 1382.2 333.368 1396.78 357.959 1448.06 355.724 1464.36 334.116 1466.13 331.767 1467.95 326.48 1468.96 323.581zM1370.22 237.42C1369.26 231.595 1368.07 227.746 1370.81 222.468 1375.7 213.034 1393.12 207.446 1403.21 204.906 1402.39 222.189 1401.72 232.869 1423.97 231.531 1432.92 230.993 1442.49 230.458 1451.47 229.974 1457.32 226.224 1456.06 219.447 1455.85 212.936 1471.16 219.788 1484.44 224.675 1469.94 241.332 1444.82 261.47 1393.74 260.566 1370.22 237.42z"></path>
  <path fill="#E79A8F" d="M 1451.47 229.974 C 1457.32 226.224 1456.06 219.447 1455.85 212.936 C 1471.16 219.788 1484.44 224.675 1469.94 241.332 C 1466.49 236.065 1456.28 235.584 1451.47 229.974 z"></path>
  <path fill="#FCFBFB" d="M 1512.8 311.507 C 1523.4 316.305 1529.58 318.988 1533.59 330.847 C 1535.51 335.171 1536.89 342.435 1540.93 345.292 C 1563.1 360.943 1560.37 335.936 1565.66 329.093 C 1571.44 328.847 1577.29 328.986 1583.05 329.263 C 1590.29 329.641 1590.14 331.456 1591.59 337.713 C 1595.16 353.074 1603.44 352.733 1613.54 342.859 C 1615.58 327.727 1619.6 317.066 1635.25 311.467 L 1636.04 312.517 C 1638.95 316.327 1638.9 324.387 1639.38 329.577 C 1621.93 366.532 1551.63 366.67 1520.15 350.545 C 1501.49 340.985 1503.83 326.838 1512.8 311.507 z"></path>
  <path fill="#FCFBFB" d="M1515.43 277.19C1533.1 276.225 1525.89 294.545 1536.63 301.512 1539.36 303.28 1548.75 300.862 1552.37 300.113 1565.67 297.364 1579.21 296.167 1592.78 297.145 1598.75 297.574 1608.44 306.715 1614.84 304.587 1620.02 298.246 1617.87 284.361 1625.56 279.923 1636.47 280.579 1635.97 292.428 1636.34 300.34 1625.62 303.109 1624.06 304.543 1615.7 312.133 1610.83 317.919 1603.89 324.649 1605.17 332.855 1605.67 336.047 1605.76 337.209 1602.89 338.28 1599.6 334.532 1600.03 327.001 1597.36 324.314 1592.04 318.978 1581.02 318.781 1574.42 318.529 1546.82 317.476 1558.44 332.232 1551.04 339.556 1550.04 339.527 1549.03 339.498 1548.03 339.47 1546.31 334.864 1541.19 319.554 1538.77 316.464 1533.6 309.87 1517.2 302.035 1509.99 298.064 1504.24 289.375 1509.36 283.134 1515.43 277.19zM1412.49 150.133C1431.53 152.791 1435.02 154.114 1432.79 170.744 1432.26 174.671 1438.78 181.128 1443.92 179.821 1445.13 176.333 1443.08 171.547 1441.94 167.462L1442.83 166.345C1451.74 169.084 1448.09 181.988 1448.86 190.876 1445.6 190.825 1440.53 190.614 1437.38 191.296 1426.27 193.7 1428.61 211.912 1437.26 215.307 1441.46 215.883 1442.28 215.715 1445.59 218.072L1445.58 219.27C1440.07 222.335 1419.07 221.942 1412.3 220.85 1412.42 217.24 1412.67 213.227 1412.82 209.623 1413.57 192.041 1413.55 189.893 1396.7 187.197 1396.05 182.327 1395.89 175.289 1395.62 170.215 1401.04 172.493 1404.8 174.845 1410.38 173.185 1414.81 167.892 1412 157.402 1412.49 150.133z"></path>
  <path fill="#C9C6C7" d="M 539.485 821.252 C 542.605 819.462 549.42 818.661 553.098 817.476 C 585.538 807.026 600.862 796.196 600.975 762.009 C 610.53 769.573 620.201 776.99 629.983 784.26 L 645.013 794.92 C 635.947 798.151 627.361 802.406 618.91 805.394 C 610.876 809.745 598.484 814.47 589.862 818.436 L 587.763 816.922 C 572.338 821.424 554.9 827.736 539.485 821.252 z"></path>
  <path fill="#FCFBFB" d="M629.983 784.26 645.013 794.92C635.947 798.151 627.361 802.406 618.91 805.394 618.793 804.856 618.822 805.278 619.113 803.748L624.6 801.213C627.704 794.457 627.69 792.056 629.572 785.631L629.983 784.26zM1444.64 606.098C1446.54 607.567 1452.82 614.297 1455.65 616.805 1462.77 623.134 1469.48 628.32 1477.03 634.145 1472.61 639.941 1467.14 650.453 1463.23 657.15L1454.44 650.595C1441.2 639.71 1426.78 630.181 1413.32 618.814 1421.42 614.811 1435.96 609.522 1444.64 606.098zM1357.21 233.757 1358.97 235.135C1372.01 269.899 1444.17 271.965 1469.99 252.791 1473.06 250.504 1475.94 246.934 1479.57 245.89 1480.29 248.828 1479.31 249.616 1478 252.881 1467.83 279.254 1400.11 278.726 1378.49 267.724 1356.32 256.448 1364.53 250.573 1357.21 233.757z"></path>
  <path fill="url(#Gradient4)" d="M 1383.14 568.771 C 1363.88 564.017 1348.42 558.419 1343.91 537.491 C 1349.26 543.093 1356.49 547.993 1362.95 552.348 C 1399.43 567.193 1431.03 569.03 1468.96 555.063 C 1478.01 551.727 1481.73 547.181 1488.64 543.551 C 1489.02 554.179 1471.01 563.198 1462.59 566.046 C 1439.46 573.867 1406.84 575.69 1383.14 568.771 z"></path>
  <path fill="#FCFBFB" d="M1383.14 568.771C1363.88 564.017 1348.42 558.419 1343.91 537.491 1349.26 543.093 1356.49 547.993 1362.95 552.348 1370.39 562.239 1384.57 560.008 1385.17 567.308L1383.14 568.771zM563.127 802.46C526.65 815.317 471.25 818.967 439.253 791.539 433.846 786.904 432.818 780.853 431.923 774.14 463.454 806.532 515.006 810.707 556.172 796.635 559.061 798.499 561.37 799.567 563.127 802.46z"></path>
  <path fill="#F7B7AC" d="M 1420.86 788.884 C 1424.07 791.394 1426.59 794.603 1429.96 796.989 C 1465.57 822.178 1520.6 823.196 1558.6 802.685 C 1562.66 800.49 1567.66 796.64 1571.45 793.808 L 1571.93 794.738 L 1570.35 797.943 C 1546.35 827.246 1494.29 829.44 1460.71 819.274 C 1442.5 813.762 1427.44 807.779 1420.86 788.884 z"></path>
  <path fill="#E79A8F" d="M1747.91 811.912C1750.96 813.667 1754.36 816.753 1757.53 818.726 1787.47 837.367 1841.6 834.436 1868.99 813.798L1869.62 814.707 1868.7 818.772C1848.21 846.285 1747.71 846.688 1747.91 811.912zM1408.8 863.879C1410.3 887.853 1358.32 893.979 1342.25 892.827 1324.64 891.565 1305.65 886.607 1293.39 873.371 1292.68 871.52 1292.22 869.813 1291.67 867.918 1293.52 867.137 1300.31 872.295 1302.55 873.512 1333.03 890.034 1383.26 890.047 1408.8 863.879zM786.124 640.573C789.098 642.167 792.182 644.502 795.221 646.225 828.76 665.23 875.181 663.488 906.954 641.644L907.924 642.333 907.328 645.186C886.981 672.515 813.836 673.391 789.065 649.191 787.062 647.235 786.557 643.3 786.124 640.573z"></path>
  <path fill="url(#Gradient3)" d="M 1570.24 889.776 C 1576.6 893.668 1583.21 899.849 1589.99 902.833 C 1618.55 915.41 1650.84 915.183 1679.42 902.797 C 1682.95 901.268 1691.22 895.62 1693.36 895.862 L 1691.54 899.312 C 1664.09 928.468 1586.84 927.684 1570.24 889.776 z"></path>
  <path fill="#E79A8F" d="M 1640.36 612.711 C 1641.54 613.679 1641.12 613.338 1641.77 614.954 C 1632 638.915 1572.1 644.11 1549.61 640.236 C 1542.57 639.024 1525.61 636.621 1519.91 632.481 C 1518.73 629.973 1517.35 628.202 1517.71 625.849 C 1535.65 629.202 1550.17 635.264 1570.03 634.326 C 1593.25 633.229 1623.58 630.167 1640.36 612.711 z"></path>
  <path fill="#FCFBFB" d="M1527.7 755.904C1498.37 760.36 1431.84 760.962 1429.74 714.108 1429.66 712.26 1432.11 711.091 1433.48 710.455L1434.56 711.267C1432.33 751.677 1497.37 754.227 1525.35 749.527L1527.44 750.722C1527.8 753.136 1527.86 753.342 1527.7 755.904zM535.097 585.872C514.368 590.643 473.362 589.306 459.953 568.545 457.951 565.445 454.975 556.645 458.977 554.284 470.95 578.221 507.582 583.554 531.042 577.61L532.147 577.325C534.488 580.087 534.634 582.166 535.097 585.872z"></path>
  <path fill="#E79A8F" d="M 1372.08 434.921 L 1373.25 435.419 C 1372.86 439.879 1371.13 443.433 1369.48 447.625 C 1351.75 457.117 1331.28 461.928 1312.47 472.797 L 1311.71 472.812 C 1310.23 470.714 1310.87 466.615 1310.89 463.492 C 1313.98 456.28 1359.66 441.665 1372.08 434.921 z"></path>
  <path fill="#FCFBFB" d="M 465.947 546.517 C 466.235 542.579 466.568 535.061 469.459 532.395 C 473.656 534.25 473.793 547.751 485.102 554.223 C 496.047 560.485 512.386 562.07 524.316 559.367 C 527.86 561.535 527.702 563.789 529.507 568.445 C 513.198 571.103 495.021 570.561 479.983 562.815 C 471.65 558.523 470.037 554.62 465.947 546.517 z"></path>
  <path fill="url(#Gradient2)" d="M 1574.77 370.603 C 1596.03 368.952 1617.35 365.74 1633.52 351.269 C 1634.67 350.246 1642.71 343.905 1643.3 343.685 C 1644.02 346.337 1643.57 351.683 1641.93 353.92 C 1627.55 373.548 1597.29 377.784 1574.63 378.269 C 1574.83 375.842 1574.76 373.065 1574.77 370.603 z"></path>
  <path fill="#F7B7AC" d="M 1594.25 727.664 C 1598.14 729.298 1600.95 731.498 1606.37 733.55 C 1620.6 738.934 1638.65 739.782 1653.37 736.354 C 1658.29 735.21 1665.86 730.685 1672.22 729.088 L 1673 729.671 L 1670.49 733.266 C 1653.19 751.309 1605.97 753.108 1594.25 727.664 z"></path>
  <path fill="#FCFBFB" d="M510.362 379.05C528.063 379.909 529.439 396.232 514.93 403.75 505.149 404.371 503.891 401.071 498.84 393.36L499.848 389.929C502 382.376 503.524 382.325 510.362 379.05zM1574.63 378.269C1557.19 377.628 1513.6 375.053 1507.23 356.235L1507.83 355.102C1531.65 366.98 1547.57 371.323 1574.77 370.603 1574.76 373.065 1574.83 375.842 1574.63 378.269zM1475.61 467.607C1486.52 472.264 1494.06 486.17 1505.78 480.721L1506.55 480.358C1507.49 482.836 1503.97 498.281 1503.26 501.757 1502.85 504.181 1502.84 504.076 1501.66 506.259 1491.92 490.337 1482.06 487.957 1475.61 467.607zM1357.74 769.523C1346.08 773.002 1315.8 765.993 1309.52 755.654 1309.25 752.124 1308.73 753.539 1310.46 751.079 1313.32 751.117 1313.97 752.703 1316.21 754.162 1330.37 763.375 1346.07 764.152 1362.32 761.574L1363.47 764.011C1362.28 767.286 1361.51 767.704 1357.74 769.523z"></path>
  <path fill="#E79A8F" d="M 564.064 546.447 C 568.008 571.963 558.444 579.281 535.097 585.872 C 534.634 582.166 534.488 580.087 532.147 577.325 C 549.751 573.32 559.944 564.096 564.064 546.447 z"></path>
  <path fill="#F7B7AC" d="M 1525.35 749.527 C 1543.42 743.876 1562.33 738.462 1564.43 716.614 L 1565.84 716.031 C 1567.83 718.31 1567.78 720.344 1567.5 723.433 C 1565.75 743.084 1544.19 752.491 1527.7 755.904 C 1527.86 753.342 1527.8 753.136 1527.44 750.722 L 1525.35 749.527 z"></path>
  <path fill="#FCFBFB" d="M 1574.56 267.968 C 1577.84 267.882 1578.22 268.175 1581.38 269.327 C 1586.78 274.465 1588.22 278.545 1585.37 285.365 C 1582.26 287.368 1581.47 286.622 1577.24 286.494 L 1564.08 286.263 C 1565.89 277.112 1565.3 271.804 1574.56 267.968 z"></path>
  <path fill="#E79A8F" d="M556.172 796.635C573.522 789.115 581.111 784.625 592.2 769.071 588.39 786.017 581.217 798.066 563.127 802.46 561.37 799.567 559.061 798.499 556.172 796.635zM524.316 559.367C538.964 556.526 552.078 553.79 550.74 535.934L551.569 535.128C555.151 538.303 554.389 544.199 554.512 548.942 547.093 562.013 543.537 562.908 529.507 568.445 527.702 563.789 527.86 561.535 524.316 559.367zM1805.03 684.235C1824.09 685.458 1834.39 680.973 1851.6 673.068 1837 688.628 1815.48 695.923 1794.54 690.008 1798.39 690.207 1800.65 690.683 1804.18 689.163 1805.91 686.261 1805.53 687.828 1805.03 684.235z"></path>
  <path fill="url(#Gradient1)" d="M 1266.96 446.282 C 1274.8 451.084 1298.65 463.075 1302.54 468.18 C 1303.03 470.688 1303.38 472.868 1303.74 475.398 C 1289.57 465.664 1278.68 459.63 1264.2 450.909 C 1265.1 448.256 1265.21 448.318 1266.96 446.282 z"></path>
  <path fill="#F7B7AC" d="M 1794.54 690.008 C 1786.36 689.492 1771.05 685.206 1770.36 675.551 C 1772.32 674.506 1774.98 676.124 1777.56 677.238 C 1788.48 681.964 1793.21 682.999 1805.03 684.235 C 1805.53 687.828 1805.91 686.261 1804.18 689.163 C 1800.65 690.683 1798.39 690.207 1794.54 690.008 z"></path>
  <path fill="#FCFBFB" d="M813.52 525.484C827.008 532.551 830.425 533.873 845.45 534.217 852.065 534.971 853.604 534.097 857.026 540.204 841.911 546.415 823.944 535.893 813.52 525.484zM877.109 563.43C884.024 566.608 891.698 571.257 895.997 577.686 899.534 582.975 898.815 584.289 897.57 590.374 897.211 590.445 896.035 590.117 895.601 590.021 886.466 580.251 882.431 576.087 877.109 563.43z"></path>
  <path fill="#E79A8F" d="M 1362.32 761.574 C 1374.93 758.023 1376.11 758.274 1385.63 749.57 C 1387.73 752.152 1387.04 750.679 1387.37 754.296 C 1384.94 760.164 1378.67 762.928 1372.97 765.264 C 1368.09 767.297 1362.97 768.728 1357.74 769.523 C 1361.51 767.704 1362.28 767.286 1363.47 764.011 L 1362.32 761.574 z"></path>
  <path fill="#F7B7AC" d="M 1264.2 450.909 C 1258.84 447.84 1240.58 438.614 1240.54 432.187 C 1245.88 431.088 1261.62 442.866 1266.96 446.282 C 1265.21 448.318 1265.1 448.256 1264.2 450.909 z"></path>
  <path fill="#FCFBFB" d="M 1291.4 134.517 C 1294.95 136.433 1300.59 147.47 1300.56 151.818 L 1298.69 153.341 L 1289.37 157.835 C 1290.82 148.713 1291.08 143.685 1291.4 134.517 z"></path>
  <path fill="#E79A8F" d="M 845.45 534.217 C 859.66 534.398 861.794 532.855 874.748 528.429 C 868.115 535.132 865.794 536.697 857.026 540.204 C 853.604 534.097 852.065 534.971 845.45 534.217 z"></path>
  <path fill="#FCFBFB" d="M 1451.75 199.431 C 1453.14 201.168 1453.14 201.957 1453.72 204.111 L 1453.01 205.231 C 1449.5 206.208 1446.96 205.089 1443.33 204.148 C 1442.89 204.135 1441.97 203.679 1441.49 203.481 C 1443.75 201.09 1448.32 200.37 1451.75 199.431 z"></path>
  <path fill="#474850" d="M 1496.18 599.693 C 1495.58 595.728 1494.63 592.252 1495.75 588.508 C 1497.61 590.604 1497.33 596.996 1497.37 599.963 L 1496.18 599.693 z"></path>
  <path fill="#23242C" d="M 1041.39 1501.06 C 1044.61 1498.79 1049.33 1500.49 1052.93 1499.66 C 1070.07 1495.72 1086.72 1496.52 1103.87 1499.79 C 1107.74 1500.53 1112.62 1499.34 1116.07 1501.05 C 1095.15 1501.87 1062.32 1501.82 1041.39 1501.06 z"></path>
  <path fill="#FCFBFB" d="M 391.671 115.153 C 437.284 111.989 446.685 161.544 405.455 174.872 C 388.511 175.974 372.081 170.723 366.523 152.965 C 364.266 145.677 365.123 137.78 368.892 131.146 C 374.14 121.956 381.96 118.001 391.671 115.153 z"></path>
  <path fill="#474850" d="M 394.648 129.019 C 415.75 129.544 425.051 152.145 401.728 160.993 C 380.512 161.422 372.459 139.283 394.648 129.019 z"></path>
  <path fill="#FCFBFB" d="M281.498 116.397 292.645 116.404C292.99 135.475 292.68 155.464 292.669 174.606 288.021 174.765 279.973 175.786 276.872 172.999L276.819 146.539C270.807 155.474 264.821 165.146 257.836 173.246 250.387 165.251 243.894 155.424 237.773 146.383L237.951 173.953 222.408 173.974 222.87 116.369 234.131 116.39C239.984 125.006 251.601 141.608 258.355 148.697 266.167 138 273.882 127.233 281.498 116.397zM305.327 116.049C308.514 116.005 321.442 116.324 323.991 115.853 354.722 110.179 375.619 144.886 341.626 159.292 334.419 161.182 329.378 160.939 321.99 160.845 321.989 165.384 321.486 169.991 321.089 174.519 316.135 174.713 310.591 174.651 305.582 174.708 305.356 155.156 305.271 135.602 305.327 116.049z"></path>
  <path fill="#474850" d="M 322.824 130.32 C 330.352 130.258 338.093 129.238 342.265 136.437 C 342.507 140.156 341.914 140.755 339.844 143.935 C 333.418 146.551 329.228 146.054 322.33 145.955 C 322.28 140.738 322.584 135.532 322.824 130.32 z"></path>
  <path fill="#FCFBFB" d="M162.255 116.28 211.906 116.272C211.402 120.865 211.659 126.102 211.745 130.79 203.786 130.971 185.991 129.557 179.815 131.913 175.874 142.081 199.125 138.861 205.499 138.855L205.305 152.905 182.75 152.937 180.052 153.299C178.339 156.557 178.642 154.875 179.101 158.52 182.948 161.363 204.213 160.38 210.894 160.468L210.885 174.386C195.215 174.835 178.149 174.563 162.365 174.586 161.915 155.553 162.235 135.396 162.255 116.28zM101.677 115.91 153.177 115.883 153.109 130.245C147.567 130.628 141.786 130.827 136.217 131.102L136.216 157.26 136.089 174.533 119.122 174.701 119.209 131.024 101.712 130.539 101.677 115.91z"></path>
  <path fill="#C9C6C7" d="M 571.256 150.185 C 588.549 148.993 604.574 157.92 590.77 175.505 C 585.717 178.275 578.342 181.076 573.219 177.541 C 568.772 171.2 570.826 158.403 571.256 150.185 z"></path>
  <path fill="#474850" d="M 573.834 152.233 C 588.162 152.462 599.666 158.188 589.354 173.803 C 584.642 176.176 579.222 178.293 574.847 174.713 C 572.195 169.008 573.518 158.947 573.834 152.233 z"></path>
  <path fill="#C9C6C7" d="M 545.708 150.44 C 550.825 153.166 557.161 172.03 559.36 178.065 L 558.586 178.772 C 555.272 174.728 555.319 173.108 551.249 172.438 C 541.682 172.262 542.771 171.753 534.41 176.801 L 533.706 176.374 C 538.549 167.274 540.729 159.391 545.708 150.44 z"></path>
  <path fill="#474850" d="M 545.83 154.634 C 548.886 156.547 552.501 165.99 552.496 169.604 L 550.247 170.348 C 546.287 170.481 543.5 171.242 540.808 168.246 C 540.49 164.477 544.037 158.367 545.83 154.634 z"></path>
  <path fill="#C9C6C7" d="M643.712 149.818C646.807 153.251 646.869 174.653 643.712 177.764 642.829 169.74 642.899 162.607 642.853 154.562 639.279 159.33 636.128 167.124 631.182 169.57 627.76 168.91 628.079 167.949 625.532 164.398 625.551 169.517 625.472 171.465 624.686 176.539L623.887 176.379C622.981 170.705 622.001 157.427 623.365 151.912L624.789 151.718C626.389 158.219 627.004 161.355 630.277 167.178L630.932 168.322C635.156 162.129 639.416 155.961 643.712 149.818zM665.75 150.049C666.955 149.975 668.161 149.92 669.368 149.884 672.834 149.788 677.134 149.626 679.65 152.015L679.276 153.474C667.538 150.166 657.286 153.732 659.39 166.608 661.112 177.144 674.865 183.454 680.873 169.92 678.742 167.472 678.604 168.414 676.224 164.826L677.437 164.452C680.376 166.059 686.579 171.861 682.755 174.926 663.708 190.189 645.774 164.962 665.75 150.049zM507.208 150.433C512.546 150.279 522.379 149.596 527.205 150.785L527.762 152.005C525.577 153.69 521.972 152.78 517.671 153.495 516.493 156.329 516.851 164.204 516.856 167.75 516.878 170.99 517.397 176.918 515.906 179.407L514.483 178.695C512.608 170.975 515.314 160.42 513.532 153.695 511.822 153.056 511.484 152.977 509.726 152.778L508.252 152.62 507.208 150.433zM479.157 150.465C484.544 150.333 494.297 149.778 499.25 150.616L499.807 152.029C497.366 153.665 495.066 152.477 490.67 153.484 489.495 157.054 489.99 167.635 490.027 171.947 490.072 174.024 489.834 175.987 489.645 178.053L488.792 178.245C487.683 172.128 487.804 161.155 487.679 154.597 484.756 151.015 482.735 154.759 478.71 152.03L479.157 150.465zM608.28 150.754C611.592 154.92 610.057 173.403 609.552 179.326 606.273 175.447 607.845 156.543 608.28 150.754z"></path>
</svg>
