<svg width="90" height="93" viewBox="0 0 90 93" fill="none" xmlns="http://www.w3.org/2000/svg">
<g filter="url(#filter0_d_1013_165)">
<path d="M44 20C65 22 77 36 76 78H30C30 60 50 65 46 36" fill="#1A1A1A"/>
<path d="M44 20C65 22 77 36 76 78H30C30 60 50 65 46 36" stroke="black" stroke-width="4.26667" stroke-linecap="round" stroke-linejoin="round"/>
<path d="M48 36C48.76 41.82 36.9 50.74 32 54C26 58 26.36 62.68 22 62C19.916 60.12 24.82 55.92 22 56C20 56 22.38 58.46 20 60C18 60 11.994 62 12 52C12 48 24 28 24 28C24 28 27.78 24.2 28 21C26.54 19.012 27 17 27 15C29 13 33 20 33 20H37C37 20 38.56 16.016 42 14C44 14 44 20 44 20" fill="#1A1A1A"/>
<path d="M48 36C48.76 41.82 36.9 50.74 32 54C26 58 26.36 62.68 22 62C19.916 60.12 24.82 55.92 22 56C20 56 22.38 58.46 20 60C18 60 11.994 62 12 52C12 48 24 28 24 28C24 28 27.78 24.2 28 21C26.54 19.012 27 17 27 15C29 13 33 20 33 20H37C37 20 38.56 16.016 42 14C44 14 44 20 44 20" stroke="black" stroke-width="4.26667" stroke-linecap="round" stroke-linejoin="round"/>
<path d="M49.0999 20.8L48.2 23.7L49.2 24C55.5 26 60.5 28.98 65 37.5C69.5 46.02 71.5 58.12 70.5 78L70.4 79H74.9L75 78C76 57.88 73.24 44.3 68.5 35.32C63.76 26.34 56.92 22.04 50.1199 21L49.0999 20.8Z" fill="white"/>
<path d="M19 51C19 51.2652 18.8946 51.5196 18.7071 51.7071C18.5196 51.8946 18.2652 52 18 52C17.7348 52 17.4804 51.8946 17.2929 51.7071C17.1054 51.5196 17 51.2652 17 51C17 50.7348 17.1054 50.4804 17.2929 50.2929C17.4804 50.1054 17.7348 50 18 50C18.2652 50 18.5196 50.1054 18.7071 50.2929C18.8946 50.4804 19 50.7348 19 51Z" fill="white" stroke="white" stroke-width="4.26667" stroke-linejoin="round"/>
<path d="M30.5 28.4C30.614 28.4654 30.688 28.5974 30.718 28.7884C30.7479 28.9795 30.7331 29.2259 30.6744 29.5135C30.6157 29.8012 30.5143 30.1245 30.3759 30.4649C30.2375 30.8054 30.0649 31.1563 29.8679 31.4978C29.6709 31.8392 29.4534 32.1644 29.2278 32.4549C29.0022 32.7453 28.7729 32.9953 28.5531 33.1905C28.3332 33.3857 28.127 33.5223 27.9463 33.5926C27.7656 33.6629 27.614 33.6654 27.5 33.6C27.386 33.5346 27.3119 33.4027 27.282 33.2116C27.2521 33.0205 27.2669 32.7742 27.3256 32.4865C27.3843 32.1988 27.4857 31.8756 27.6241 31.5351C27.7624 31.1946 27.9351 30.8437 28.132 30.5022C28.329 30.1608 28.5465 29.8356 28.7721 29.5451C28.9977 29.2547 29.227 29.0048 29.4469 28.8095C29.6668 28.6143 29.873 28.4777 30.0537 28.4074C30.2343 28.3372 30.386 28.3346 30.5 28.4Z" fill="white" stroke="white" stroke-width="4.26667" stroke-linejoin="round"/>
</g>
<defs>
<filter id="filter0_d_1013_165" x="-8" y="-4" width="106" height="106" filterUnits="userSpaceOnUse" color-interpolation-filters="sRGB">
<feFlood flood-opacity="0" result="BackgroundImageFix"/>
<feColorMatrix in="SourceAlpha" type="matrix" values="0 0 0 0 0 0 0 0 0 0 0 0 0 0 0 0 0 0 127 0" result="hardAlpha"/>
<feOffset dy="4"/>
<feGaussianBlur stdDeviation="4"/>
<feColorMatrix type="matrix" values="0 0 0 0 0 0 0 0 0 0 0 0 0 0 0 0 0 0 0.25 0"/>
<feBlend mode="normal" in2="BackgroundImageFix" result="effect1_dropShadow_1013_165"/>
<feBlend mode="normal" in="SourceGraphic" in2="effect1_dropShadow_1013_165" result="shape"/>
</filter>
</defs>
</svg>
