<svg width="90" height="94" viewBox="0 0 90 94" fill="none" xmlns="http://www.w3.org/2000/svg">
<g filter="url(#filter0_d_1013_168)">
<path d="M45 18C40.58 18 37 21.58 37 26C37 27.78 37.58 29.42 38.56 30.76C34.66 33 32 37.18 32 42C32 46.06 33.88 49.68 36.82 52.06C30.82 54.18 22 63.16 22 79H68C68 63.16 59.18 54.18 53.18 52.06C56.12 49.68 58 46.06 58 42C58 37.18 55.34 33 51.44 30.76C52.42 29.42 53 27.78 53 26C53 21.58 49.42 18 45 18Z" fill="#F2F2F2" stroke="black" stroke-width="4.26667" stroke-linecap="round"/>
</g>
<defs>
<filter id="filter0_d_1013_168" x="-8" y="-4" width="106" height="106" filterUnits="userSpaceOnUse" color-interpolation-filters="sRGB">
<feFlood flood-opacity="0" result="BackgroundImageFix"/>
<feColorMatrix in="SourceAlpha" type="matrix" values="0 0 0 0 0 0 0 0 0 0 0 0 0 0 0 0 0 0 127 0" result="hardAlpha"/>
<feOffset dy="4"/>
<feGaussianBlur stdDeviation="4"/>
<feColorMatrix type="matrix" values="0 0 0 0 0 0 0 0 0 0 0 0 0 0 0 0 0 0 0.25 0"/>
<feBlend mode="normal" in2="BackgroundImageFix" result="effect1_dropShadow_1013_168"/>
<feBlend mode="normal" in="SourceGraphic" in2="effect1_dropShadow_1013_168" result="shape"/>
</filter>
</defs>
</svg>
